<?xml version="1.0" encoding="UTF-8"?>
<svg xmlns="http://www.w3.org/2000/svg" xmlns:xlink="http://www.w3.org/1999/xlink" width="100pt" height="100pt" viewBox="0 0 100 100" version="1.1">
<g id="surface336095">
<path style=" stroke:none;fill-rule:nonzero;fill:rgb(0%,0%,0%);fill-opacity:1;" d="M 34 4 L 34 8 L 46 8 L 46 4 Z M 56 4 L 56 8 L 68 8 L 68 4 Z M 21.375 4.3125 C 12.640625 5.796875 5.796875 12.640625 4.3125 21.375 L 8.25 22.0625 C 9.445312 15.007812 15.007812 9.445312 22.0625 8.25 Z M 78.625 4.3125 L 77.9375 8.25 C 84.992188 9.445312 90.554688 15.007812 91.75 22.0625 L 95.6875 21.375 C 94.203125 12.640625 87.359375 5.796875 78.625 4.3125 Z M 4 32 L 4 44 L 8 44 L 8 32 Z M 92 34 L 92 46 L 96 46 L 96 34 Z M 4 54 L 4 66 L 8 66 L 8 54 Z M 92 56 L 92 68 L 96 68 L 96 56 Z M 8.25 77.9375 L 4.3125 78.625 C 5.796875 87.359375 12.640625 94.203125 21.375 95.6875 L 22.0625 91.75 C 15.007812 90.554688 9.445312 84.992188 8.25 77.9375 Z M 91.75 77.9375 C 90.554688 84.992188 84.992188 90.554688 77.9375 91.75 L 78.625 95.6875 C 87.359375 94.203125 94.203125 87.359375 95.6875 78.625 Z M 32 92 L 32 96 L 44 96 L 44 92 Z M 54 92 L 54 96 L 66 96 L 66 92 Z M 54 92 "/>
</g>
</svg>
