<?xml version="1.0" encoding="utf-8"?>
<!-- Generator: Adobe Illustrator 21.0.0, SVG Export Plug-In . SVG Version: 6.00 Build 0)  -->
<svg version="1.1" id="Layer_1" xmlns="http://www.w3.org/2000/svg" xmlns:xlink="http://www.w3.org/1999/xlink" x="0px" y="0px"
	 viewBox="0 0 512 512" style="enable-background:new 0 0 512 512;" xml:space="preserve">
<style type="text/css">
	.st0{fill:#2E3191;}
</style>
<g>
	<path class="st0" d="M438.6,0H73.4C32.9,0,0,32.9,0,73.4v365.2C0,479.1,32.9,512,73.4,512h365.2c40.5,0,73.4-32.9,73.4-73.4V73.4
		C512,32.9,479.1,0,438.6,0z M480.3,438.6c0,23-18.7,41.7-41.7,41.7H73.4c-23,0-41.7-18.7-41.7-41.7V73.4c0-23,18.7-41.7,41.7-41.7
		h365.2c23,0,41.7,18.7,41.7,41.7V438.6z"/>
	<path class="st0" d="M310.3,276c-6.3,0-11.4,5.1-11.4,11.3c0,6.3,5.1,11.3,11.4,11.3c6.3,0,11.4-5.1,11.4-11.3
		C321.6,281.1,316.5,276,310.3,276z"/>
	<path class="st0" d="M266.8,153c-27.9,0-50.6,22.3-50.6,49.7v18.5h-1.6c-19.9,0-36.1,16.2-36.1,36.1v59.5
		c0,19.9,16.2,36.1,36.1,36.1H319c19.9,0,36.1-16.2,36.1-36.1c0-7.9-6.4-14.3-14.3-14.3s-14.3,6.4-14.3,14.3c0,4.1-3.3,7.4-7.4,7.4
		H214.5c-4.1,0-7.4-3.3-7.4-7.4v-59.5c0-4.1,3.3-7.4,7.4-7.4H319c4.1,0,7.4,3.3,7.4,7.4v26.9c0,7.9,6.4,14.3,14.3,14.3
		s14.3-6.4,14.3-14.3v-26.9c0-19.9-16.2-36.1-36.1-36.1h-1.7v-18.5C317.4,175.3,294.7,153,266.8,153z M288.7,221.2h-43.9v-18.5
		c0-11.6,9.9-21,22-21c12.1,0,22,9.4,22,21V221.2z"/>
	<path class="st0" d="M241.3,287.3c0,6.3,5.1,11.3,11.4,11.3c6.3,0,11.4-5.1,11.4-11.3c0-6.3-5.1-11.3-11.4-11.3
		C246.4,276,241.3,281.1,241.3,287.3z"/>
	<path class="st0" d="M212.7,287.3c0,6.3,5.1,11.3,11.4,11.3c6.3,0,11.4-5.1,11.4-11.3c0-6.3-5.1-11.3-11.4-11.3
		C217.8,276,212.7,281.1,212.7,287.3z"/>
	<path class="st0" d="M269.9,287.3c0,6.3,5.1,11.3,11.4,11.3c6.3,0,11.4-5.1,11.4-11.3c0-6.3-5.1-11.3-11.4-11.3
		C275,276,269.9,281.1,269.9,287.3z"/>
	<path class="st0" d="M266,88.4c-46.5,0-90,18.3-122.4,51.6c-6.4,6.5-6.3,17.1,0.3,23.7c3.1,3.1,7.3,4.7,11.7,4.7
		c4.5,0,8.8-1.8,12-5c26.1-26.8,61.2-41.5,98.6-41.5c75.8,0,137.4,61.7,137.4,137.5c0,75.9-61.7,137.6-137.6,137.6
		c-69.3,0-127.2-51.4-136.3-119c3.1,2.9,7.3,4.6,11.5,4.6c4.3,0,8.5-1.7,11.8-4.9c3.2-3.2,4.9-7.4,4.9-11.8c0-4.5-1.7-8.7-4.9-11.8
		l-29.4-29.5c-3.2-3.2-7.4-4.9-11.8-4.9c-4.5,0-8.7,1.7-11.8,4.9L70.5,254c-3.2,3.2-4.9,7.4-4.9,11.8c0,4.5,1.7,8.7,4.9,11.8
		c3.1,3.1,7.4,4.9,11.8,4.9c4.3,0,8.5-1.7,11.8-4.9l1.7-1.7c3.8,39.4,21.1,76.1,49.3,104.4c32.3,32.3,75.2,50.1,120.9,50.1
		c45.7,0,88.6-17.8,120.9-50.1c32.3-32.3,50-75.2,50-120.9c0-45.7-17.8-88.6-50.1-120.9C354.6,106.2,311.7,88.4,266,88.4z"/>
</g>
</svg>
