<?xml version="1.0" encoding="utf-8"?>
<!-- Generator: Adobe Illustrator 21.0.0, SVG Export Plug-In . SVG Version: 6.00 Build 0)  -->
<svg version="1.1" id="Layer_1" xmlns="http://www.w3.org/2000/svg" xmlns:xlink="http://www.w3.org/1999/xlink" x="0px" y="0px"
	 viewBox="0 0 512 512" style="enable-background:new 0 0 512 512;" xml:space="preserve">
<style type="text/css">
	.st0{fill:#2D368E;}
</style>
<g>
	<path class="st0" d="M438.6,0H73.4C32.9,0,0,32.9,0,73.4v365.2C0,479.1,32.9,512,73.4,512h365.2c40.5,0,73.4-32.9,73.4-73.4V73.4
		C512,32.9,479.1,0,438.6,0z M31.7,144.6l164.1-43.9v317.4L31.7,374.2V144.6z M480.3,438.6c0,23-18.7,41.7-41.7,41.7H73.4
		c-23,0-41.7-18.7-41.7-41.7v-34.2l173.4,49.4c1.8,0.7,3.7,1.1,5.7,1.1c5.9,0,11.3-3.5,13.7-8.9c0.9-1.9,1.3-4,1.3-6.1v-12.8h137.3
		c8.3,0,15-6.7,15-15V298.7c0-8.3-6.7-15-15-15c-8.3,0-15,6.7-15,15v98.4H225.9V121.7h122.3v98.4c0,8.3,6.7,15,15,15
		c8.3,0,15-6.7,15-15V106.7c0-8.3-6.7-15-15-15H225.9V78.9c0-8.3-6.7-15-15-15c-2,0-3.9,0.4-5.7,1.1L31.7,114.4v-41
		c0-23,18.7-41.7,41.7-41.7h365.2c23,0,41.7,18.7,41.7,41.7V438.6z"/>
	<path class="st0" d="M461.8,255.6l-0.1-0.4c-0.3-1.1-0.8-2.3-1.5-3.4c-0.1-0.2-0.3-0.5-0.4-0.7c-0.5-0.8-1.2-1.6-1.9-2.3
		l-39.3-39.3c-2.8-2.8-6.6-4.4-10.6-4.4c-4,0-7.8,1.6-10.6,4.4c-5.9,5.9-5.9,15.4,0,21.2l13.6,13.6H266.8c-8.3,0-15,6.7-15,15
		c0,8.3,6.7,15,15,15H411L397.4,288c-2.8,2.8-4.4,6.6-4.4,10.6c0,4,1.6,7.8,4.4,10.6c2.8,2.8,6.6,4.4,10.6,4.4c4,0,7.8-1.6,10.6-4.4
		l39.2-39.3c0.7-0.7,1.3-1.5,1.9-2.3l0.2-0.2l0.5-0.8c0.2-0.3,0.4-0.7,0.6-1.1c0.4-1.1,0.6-1.6,0.7-2c0.1-0.4,0.2-0.8,0.3-1.2
		c0.4-1.9,0.4-3.9,0-5.8L461.8,255.6z"/>
	<path class="st0" d="M163.7,152.4c0,2.9-0.2,5.4-0.7,7.5c-0.4,1.6-0.9,3-1.7,4.1c-0.7,1-1.6,1.9-2.9,2.6c-1.5,0.9-3.4,1.7-5.8,2.4
		c-1.6,0.4-2.6,0.5-3.1,0.5c-0.1,0-0.3,0-0.8-0.1c0,0-0.3-0.3-0.5-1.2c-0.3-1.3-0.5-2.9-0.5-4.8v-20.4c0-2.2-0.1-4-0.4-5.5
		c-0.5-2.6-1.7-4.7-3.4-6.1c-1.6-1.3-3.5-1.9-5.7-1.9c-0.6,0-1.3,0.1-1.9,0.2c-1.4,0.3-3,0.7-4.8,1.5l-11.4,4.9v16.8l6.2-2.5v14.4
		c0,3.9,0.4,7.4,1.1,10.3c0.9,3.7,2.6,6.7,5,8.9c2.6,2.4,5.9,3.8,9.9,4.2c0.8,0.1,1.6,0.1,2.4,0.1c2.9,0,6.1-0.5,9.8-1.4
		c5.1-1.3,9.3-2.9,12.9-5c4-2.3,7.3-5.3,9.7-8.6c2.4-3.4,4.2-7.2,5.1-11.5c0.8-3.7,1.2-7.8,1.2-12.2v-40.5l-19.6,8.4V152.4z"/>
	<path class="st0" d="M161,255.2v-45.4l19.1-3.3V188l-45.6,8.8c-2.1,0.4-3.9,1.1-5.5,2c-1.6,1-2.9,2.1-4,3.5
		c-1.1,1.4-1.8,3.1-2.2,4.7c-0.3,1.2-0.4,2.4-0.4,3.7v13.1l16-2.3v-6.5c0-0.6,0.1-0.9,0-0.9c0.1-0.1,0.2-0.1,0.4-0.2v42L161,255.2z"
		/>
	<path class="st0" d="M164.3,303.8c-1.5,2-3.2,3.3-4.9,4.1c-0.9,0.4-1.8,0.5-3,0.5c-0.8,0-1.6-0.1-2.5-0.2c-2-0.4-3.5-1-4.7-1.8
		c-1.3-1-2.3-2-3.2-3.3c-0.9-1.4-1.5-2.9-1.9-4.6c-0.5-1.9-0.7-3.8-0.7-5.7c0-4,0.5-6.4,0.9-7.7c0.5-1.6,1.2-2.8,1.9-3.6
		c0.7-0.7,1.4-1.2,2.2-1.4c1-0.3,2.1-0.5,3.3-0.5c0.3,0,0.5,0,0.8,0c3.2,0.2,4.7,1.2,5.5,1.9c1.4,1.2,2.5,3.6,3.2,6.7l1.2,5.6
		l15.9,1.5v-8.1c0-2.4-0.1-4.7-0.3-7c-0.3-3.7-1.6-6.8-3.7-9.2c-2.3-2.7-5.6-4.8-10.1-6.5c-3.9-1.6-8.5-2.4-13.5-2.6l-1,0
		c-3.9,0-7.5,0.8-10.9,2.3c-3.5,1.5-6.5,3.7-9,6.5c-2.4,2.6-4.3,5.8-5.7,9.4c-1.3,3.5-2,7.3-2,11.4c0,3.8,0.6,7.5,1.7,11
		c1.2,3.6,2.9,7,5.2,9.9c2.3,3.1,5.2,5.7,8.6,7.9c3.5,2.3,7.5,3.9,11.8,4.7c2.7,0.5,5.3,0.8,7.8,0.9l0.4,0c2.7,0,5.3-0.4,7.8-1.2
		c2.6-0.8,5.1-2.2,7.3-3.9c2.3-1.8,4.3-4,6.1-6.8l3.6-5.5l-13.5-11L164.3,303.8z"/>
	<path class="st0" d="M164.7,376.6c-1.3,1.4-2.7,2.2-4.1,2.5c-0.3,0.1-0.6,0.1-0.9,0.1c-1.2,0-2.7-0.4-4.5-1.1
		c-2.1-0.9-3.9-2-5.2-3.3c-1.5-1.4-2.7-2.9-3.6-4.6c-0.9-1.7-1.6-3.5-2.1-5.4c-0.5-2-0.7-4-0.7-5.9c0-3.9,0.5-6.1,0.9-7.3
		c0.6-1.7,1.2-2.3,1.4-2.5c0.5-0.4,0.9-0.5,1.6-0.6c0.2,0,0.5,0,0.7,0c1,0,2.1,0.2,3.4,0.5c2.7,0.8,4.7,1.9,6.3,3.7
		c1.7,1.9,2.9,4.6,3.6,8.2l1,4.9l16.1,5.2v-9.6c0-2.4-0.1-4.8-0.3-7.1c-0.3-3.5-1.4-6.7-3.4-9.3c-2.2-3-5.3-5.7-9.5-8.3
		c-3.8-2.4-8.2-4.2-13.2-5.5c-2.4-0.6-4.8-0.9-7.1-0.9c-1.7,0-3.3,0.2-4.9,0.5c-3.7,0.8-7,2.4-9.7,4.8c-2.6,2.3-4.6,5.2-6.1,8.6
		c-1.4,3.3-2.1,7.1-2.1,11.2c0,3.8,0.6,7.5,1.7,11.2c1.1,3.7,2.8,7.3,5,10.7c2.2,3.4,4.9,6.6,8.2,9.4c3.3,2.9,7.2,5.3,11.4,7.1
		c2.6,1.1,5.2,2,7.6,2.6c2.1,0.5,4.1,0.8,6.1,0.8c0.7,0,1.4,0,2.1-0.1c2.7-0.3,5.4-1.1,7.8-2.4c2.5-1.3,4.7-3.3,6.7-5.9l3.6-4.9
		L170,371L164.7,376.6z"/>
</g>
</svg>
