<svg xmlns="http://www.w3.org/2000/svg" viewBox="0 0 316.53 316.53"><defs><style>.cls-1,.cls-3{fill:none;}.cls-1,.cls-2,.cls-3{stroke:#2e3191;stroke-miterlimit:10;}.cls-1{stroke-width:20px;}.cls-2{fill:#2e3191;}.cls-3{stroke-width:3px;}</style></defs><title>icon - user manual</title><g id="Layer_2" data-name="Layer 2"><g id="Layer_1-2" data-name="Layer 1"><rect class="cls-1" x="10" y="10" width="296.53" height="296.53" rx="32" ry="32"/><path class="cls-2" d="M57.69,91.91l71,133.6,2.2,25.57,20.28-7.94,1.76,4.85-25.13,9.7-72.31-142S52.4,96.76,57.69,91.91Z"/><path class="cls-2" d="M152.93,226.83l18.08-4,2.65,12.35L186,250.64H175l-5.51,8.82a43,43,0,0,1-12.13-15.87S152.73,234.95,152.93,226.83Z"/><polygon class="cls-2" points="156.2 241.16 261.94 206.66 261.94 211.95 160.21 244.69 156.2 241.16"/><line class="cls-3" x1="137.6" y1="225.67" x2="255.16" y2="189.38"/><line class="cls-3" x1="138.01" y1="232.05" x2="254.86" y2="195.99"/><line class="cls-3" x1="138.58" y1="239.2" x2="254.6" y2="203.39"/><polygon class="cls-2" points="62.98 87.06 178.07 57.07 189.01 74.09 72.67 105.43 62.98 87.06"/><polygon class="cls-2" points="95.97 99.91 156.2 211.19 132.21 218.45 72.67 105.43 95.97 99.91"/><polygon class="cls-2" points="171.8 79.19 238.08 186.39 257.43 180.53 189.01 74.09 171.8 79.19"/><polygon class="cls-2" points="107.43 121.08 184.59 99.91 238.08 186.39 156.2 211.19 107.43 121.08"/></g></g></svg>