<?xml version="1.0" encoding="utf-8"?>
<!-- Generator: Adobe Illustrator 21.0.0, SVG Export Plug-In . SVG Version: 6.00 Build 0)  -->
<svg version="1.1" id="Layer_1" xmlns="http://www.w3.org/2000/svg" xmlns:xlink="http://www.w3.org/1999/xlink" x="0px" y="0px"
	 viewBox="0 0 512 512" style="enable-background:new 0 0 512 512;" xml:space="preserve">
<style type="text/css">
	.st0{fill:#FFFFFF;}
</style>
<g>
	<g>
		<g>
			<path class="st0" d="M503.4,233.1l-77.6-77.6V65.8c0-16.2-13.1-29.3-29.4-29.3c-16.2,0-29.3,13.1-29.3,29.3v30.9L309.3,39
				c-28.6-28.5-78.2-28.5-106.7,0.1l-194,194c-11.5,11.5-11.5,30,0,41.5c11.5,11.5,30.1,11.5,41.5,0l194-194
				c6.3-6.3,17.5-6.3,23.7,0l194,194c5.8,5.7,13.3,8.6,20.8,8.6c7.5,0,15-2.9,20.8-8.6C514.9,263.1,514.9,244.5,503.4,233.1z"/>
			<path class="st0" d="M266.2,136.3c-5.6-5.6-14.8-5.6-20.4,0L75.1,306.9c-2.7,2.7-4.2,6.4-4.2,10.2v124.4
				c0,29.2,23.7,52.9,52.9,52.9h84.5V363.5h95.4v130.9h84.5c29.2,0,52.9-23.7,52.9-52.9V317.1c0-3.8-1.5-7.5-4.2-10.2L266.2,136.3z"
				/>
		</g>
	</g>
</g>
</svg>
