<svg xmlns="http://www.w3.org/2000/svg" viewBox="0 0 316.53 316.53"><defs><style>.cls-1,.cls-2{fill:none;}.cls-1,.cls-2,.cls-3{stroke:#2e3191;stroke-miterlimit:10;}.cls-1{stroke-width:20px;}.cls-2{stroke-width:11px;}.cls-3{fill:#2e3191;stroke-width:4px;}</style></defs><title>icon - report</title><g id="Layer_2" data-name="Layer 2"><g id="Layer_2-2" data-name="Layer 2"><rect class="cls-1" x="10" y="10" width="296.53" height="296.53" rx="32" ry="32"/><polygon class="cls-2" points="73.81 61.84 221.94 61.84 221.94 82.2 221.94 251.32 92.72 251.32 73.81 251.32 73.81 61.84"/><polyline class="cls-2" points="92.95 252.24 92.95 271.53 242.1 271.53 242.72 81.79 221.94 82.2"/><path class="cls-2" d="M108.23,81.79V54.29a7.32,7.32,0,0,0-.26-2.44,10.05,10.05,0,0,0-6.61-6.73,4.53,4.53,0,0,0-3,.37,9.12,9.12,0,0,0-2.22,1.18,8.1,8.1,0,0,0-3.18,5,6.27,6.27,0,0,0,0,1V61.5"/><rect class="cls-3" x="128.63" y="99.25" width="54.16" height="4.32" rx="1.75" ry="1.75"/><rect class="cls-3" x="128.63" y="109.58" width="81.47" height="4.32" rx="1.75" ry="1.75"/><rect class="cls-3" x="86.59" y="110.43" width="13.94" height="4.32" rx="1.75" ry="1.75" transform="translate(107.02 -33.18) rotate(45)"/><rect class="cls-3" x="91.56" y="104.16" width="30.23" height="4.32" rx="1.75" ry="1.75" transform="translate(257.28 106.07) rotate(135)"/><rect class="cls-3" x="128.63" y="156.17" width="54.16" height="4.32" rx="1.75" ry="1.75"/><rect class="cls-3" x="128.63" y="166.51" width="81.47" height="4.32" rx="1.75" ry="1.75"/><rect class="cls-3" x="186.19" y="156.17" width="6.74" height="4.32" rx="1.75" ry="1.75"/><rect class="cls-3" x="86.59" y="167.36" width="13.94" height="4.32" rx="1.75" ry="1.75" transform="translate(147.27 -16.51) rotate(45)"/><rect class="cls-3" x="91.56" y="161.08" width="30.23" height="4.32" rx="1.75" ry="1.75" transform="translate(297.54 203.25) rotate(135)"/><rect class="cls-3" x="128.69" y="211.44" width="54.16" height="4.32" rx="1.75" ry="1.75"/><rect class="cls-3" x="128.69" y="221.78" width="81.47" height="4.32" rx="1.75" ry="1.75"/><rect class="cls-3" x="86.65" y="222.63" width="13.94" height="4.32" rx="1.75" ry="1.75" transform="translate(186.37 -0.36) rotate(45)"/><rect class="cls-3" x="91.62" y="216.36" width="30.23" height="4.32" rx="1.75" ry="1.75" transform="translate(336.72 297.56) rotate(135)"/></g></g></svg>