<?xml version="1.0" encoding="utf-8"?>
<!-- Generator: Adobe Illustrator 16.0.0, SVG Export Plug-In . SVG Version: 6.00 Build 0)  -->
<!DOCTYPE svg PUBLIC "-//W3C//DTD SVG 1.1//EN" "http://www.w3.org/Graphics/SVG/1.1/DTD/svg11.dtd">
<svg version="1.1" id="Layer_1" xmlns="http://www.w3.org/2000/svg" xmlns:xlink="http://www.w3.org/1999/xlink" x="0px" y="0px"
	 width="512px" height="512px" viewBox="0 0 512 512" enable-background="new 0 0 512 512" xml:space="preserve">
<path d="M489.756,130.527h-16.813c-5.39,0-9.763,4.37-9.763,9.764c0,5.397,4.373,9.771,9.763,9.771h7.045v76.539H125.776v-76.539
	h269.238c5.393,0,9.769-4.373,9.769-9.771c0-5.394-4.376-9.764-9.769-9.764H116.014c-5.398,0-9.768,4.37-9.768,9.764v160.134H9.768
	c-5.395,0-9.768,4.369-9.768,9.766v149.498c0,5.393,4.373,9.77,9.768,9.77h479.988c5.393,0,9.769-4.377,9.769-9.77V140.292
	C499.524,134.897,495.151,130.527,489.756,130.527 M224.864,319.963v9.563h-97.712c-5.388,0-9.761,4.371-9.761,9.764
	c0,5.398,4.373,9.77,9.761,9.77h97.56v15.373H19.534v-15.373h29.404c5.394,0,9.768-4.371,9.768-9.77
	c0-5.393-4.374-9.764-9.768-9.764H19.534v-9.563H224.864z M19.534,383.963h205.333v65.959H19.534V383.963z M479.987,449.922H244.396
	v-44.313h47.735c5.389,0,9.763-4.377,9.763-9.764c0-5.393-4.374-9.77-9.763-9.77h-47.735v-24.385h47.579
	c5.393,0,9.766-4.367,9.766-9.766c0-5.393-4.373-9.764-9.766-9.764h-47.579v-22.199h47.579c5.393,0,9.766-4.369,9.766-9.771
	c0-5.391-4.373-9.766-9.766-9.766H125.776v-54.29h354.211V449.922z"/>
<path d="M134.113,188.328c0,14.515,11.805,26.327,26.314,26.327c14.514,0,26.321-11.813,26.321-26.327
	c0-14.51-11.808-26.316-26.321-26.316C145.918,162.012,134.113,173.817,134.113,188.328 M167.217,188.328
	c0,3.745-3.045,6.786-6.789,6.786c-3.74,0-6.779-3.041-6.779-6.786c0-3.737,3.039-6.783,6.779-6.783
	C164.172,181.545,167.217,184.59,167.217,188.328"/>
<path d="M191.602,188.328c0,14.515,11.814,26.327,26.327,26.327c14.511,0,26.318-11.813,26.318-26.327
	c0-14.51-11.808-26.316-26.318-26.316C203.416,162.012,191.602,173.817,191.602,188.328 M224.712,188.328
	c0,3.745-3.046,6.786-6.783,6.786c-3.743,0-6.792-3.041-6.792-6.786c0-3.737,3.049-6.783,6.792-6.783
	C221.666,181.545,224.712,184.59,224.712,188.328"/>
<path d="M249.104,188.328c0,14.515,11.804,26.327,26.32,26.327c14.51,0,26.317-11.813,26.317-26.327
	c0-14.51-11.808-26.316-26.317-26.316C260.907,162.012,249.104,173.817,249.104,188.328 M282.207,188.328
	c0,3.745-3.043,6.786-6.783,6.786c-3.744,0-6.789-3.041-6.789-6.786c0-3.737,3.045-6.783,6.789-6.783
	C279.164,181.545,282.207,184.59,282.207,188.328"/>
<path d="M206.903,394.051h-93.372c-5.392,0-9.768,4.373-9.768,9.77v28.658c0,5.393,4.376,9.762,9.768,9.762h93.372
	c5.402,0,9.77-4.369,9.77-9.762V403.82C216.673,398.424,212.306,394.051,206.903,394.051 M197.141,422.709h-73.846v-9.121h73.846
	V422.709z"/>
<path d="M81.495,394.051H37.871c-5.397,0-9.768,4.373-9.768,9.77c0,5.395,4.37,9.768,9.768,9.768h43.624
	c5.391,0,9.771-4.373,9.771-9.768C91.266,398.424,86.889,394.051,81.495,394.051"/>
<path d="M81.495,423.551H37.871c-5.397,0-9.768,4.377-9.768,9.771c0,5.391,4.37,9.766,9.768,9.766h43.624
	c5.391,0,9.771-4.375,9.771-9.766C91.266,427.928,86.889,423.551,81.495,423.551"/>
<path d="M339.365,383.963h114.267c5.398,0,9.766-4.369,9.766-9.768V271.791c0-5.398-4.367-9.77-9.766-9.77H339.365
	c-5.393,0-9.77,4.371-9.77,9.77v102.404C329.596,379.594,333.973,383.963,339.365,383.963 M349.131,281.555h94.741v82.877h-94.741
	V281.555z"/>
<path d="M170.402,281.555h121.573c5.393,0,9.766-4.371,9.766-9.766c0-5.396-4.373-9.768-9.766-9.768H170.402
	c-5.391,0-9.768,4.371-9.768,9.768C160.635,277.184,165.012,281.555,170.402,281.555"/>
<path d="M453.632,402.523H339.879c-5.393,0-9.769,4.367-9.769,9.768c0,5.391,4.376,9.764,9.769,9.764h113.753
	c5.398,0,9.766-4.373,9.766-9.764C463.397,406.891,459.03,402.523,453.632,402.523"/>
<path d="M88.311,349.098c0.74,0,1.496-0.076,2.247-0.262l0.335-0.076c5.251-1.234,8.514-6.496,7.271-11.74
	c-1.234-5.256-6.488-8.51-11.742-7.275l-0.337,0.078c-5.249,1.238-8.505,6.496-7.271,11.742
	C79.871,346.066,83.886,349.098,88.311,349.098"/>
<path d="M439.106,42.541c-40.192,0-72.897,32.702-72.897,72.894c0,40.19,32.705,72.894,72.897,72.894
	c40.191,0,72.894-32.703,72.894-72.894C512,75.242,479.298,42.541,439.106,42.541 M474.148,121.029h-29.447v30.844
	c0,3.094-2.503,5.612-5.595,5.612c-3.096,0-5.614-2.519-5.614-5.612v-30.844h-29.432c-3.092,0-5.614-2.501-5.614-5.595
	c0-3.095,2.522-5.614,5.614-5.614h29.432V81.785c0-3.095,2.519-5.595,5.614-5.595c3.092,0,5.595,2.5,5.595,5.595v28.035h29.447
	c3.096,0,5.599,2.519,5.599,5.614C479.747,118.528,477.244,121.029,474.148,121.029"/>
</svg>
