<?xml version="1.0" encoding="utf-8"?>
<!-- Generator: Adobe Illustrator 21.0.0, SVG Export Plug-In . SVG Version: 6.00 Build 0)  -->
<svg version="1.1" id="Layer_1" xmlns="http://www.w3.org/2000/svg" xmlns:xlink="http://www.w3.org/1999/xlink" x="0px" y="0px"
	 viewBox="0 0 512 512" style="enable-background:new 0 0 512 512;" xml:space="preserve">
<g>
	<path d="M438.6,0H73.4C32.9,0,0,32.9,0,73.4v365.2C0,479.1,32.9,512,73.4,512h365.2c40.5,0,73.4-32.9,73.4-73.4V73.4
		C512,32.9,479.1,0,438.6,0z M480.3,438.6c0,23-18.7,41.7-41.7,41.7H73.4c-23,0-41.7-18.7-41.7-41.7V73.4c0-23,18.7-41.7,41.7-41.7
		h365.2c23,0,41.7,18.7,41.7,41.7L480.3,438.6L480.3,438.6z"/>
	<path d="M203,345.6c0-1.6-0.6-3.2-1.8-4.3l-0.1-0.1c-0.2-0.3-0.6-0.4-0.9-0.3c-10.7,1.5-21.1-4.6-24.9-14.7
		c-3.8-10.1,0-21.6,9.1-27.4s21.1-4.5,28.7,3.1c5.1,5.1,7.5,12.4,6.4,19.6c0,0.2,0,0.4,0.1,0.6l0.4,0.4c2.4,2.4,6.2,2.4,8.6,0
		l24.9-24.9l-24.9-24.9c-5.2-5.2-5.2-13.7,0-18.9l0.4-0.4c0.4-0.4,0.9-0.8,1.4-1.1s1-0.6,1.5-0.7c1.3-0.5,2.7-0.6,4-0.3
		c4.9,0.7,9.8-0.9,13.3-4.4c3.4-3.4,5.1-8.3,4.5-13.1s-3.4-9.1-7.5-11.6c-4.9-3-11.2-3.1-16.1-0.1c-5.5,3.3-8.5,9.5-7.5,15.8
		c0.2,1.4,0,2.9-0.5,4.3c-0.4,1-1,1.9-1.7,2.6c0,0-0.3,0.3-0.4,0.4c-0.2,0.2-0.3,0.3-0.5,0.5s-0.4,0.4-0.6,0.5
		c-0.5,0.4-0.8,0.6-1.1,0.8c-0.7,0.5-1.5,0.9-2.3,1.2c-3.2,1.3-6.8,1.2-10,0c-0.3-0.1-0.6-0.2-0.9-0.4l-3.5-2.5l-17-17
		c-36.7,39-36.8,99.7-0.2,138.8l17.2-17.2C202.3,348.8,203,347.2,203,345.6z"/>
	<path d="M310.6,354.8c-0.1-0.1-0.2-0.1-0.3-0.2c-0.1,0-0.3-0.2-0.4-0.3c-2.4-1.6-5.6-1.2-7.6,0.8l-0.5,0.4c0,0.2,0,0.4,0,0.6
		c1,6.6-1,13.3-5.3,18.4c-4.4,5.1-10.7,8-17.4,8c-4.2,0-8.4-1.2-12-3.4c-0.6-0.4-1.2-0.8-1.8-1.3c-1.5-1.1-2.8-2.4-4-3.8l-0.3-0.3
		c-0.3-0.3-0.5-0.6-0.7-1c-5.4-7.5-5.7-17.5-0.9-25.3c4.8-7.9,13.9-12.1,23-10.7c0.2,0,0.4,0,0.5-0.1l0.6-0.5
		c1.1-1.1,1.7-2.6,1.6-4.2c0-1.6-0.6-3.2-1.8-4.3l-24.9-24.9l-24.8,24.9c-5.2,5.2-13.7,5.2-18.9,0l-0.4-0.4
		c-1.7-1.8-2.5-4.3-2.2-6.8c0.8-4.9-0.8-9.9-4.4-13.4c-3.4-3.4-8.2-5.1-13-4.5c-4.9,0.6-9.2,3.4-11.7,7.5c-3,4.9-3.1,11.1-0.1,16.1
		c3.3,5.5,9.5,8.5,15.9,7.6c2.5-0.4,5.1,0.4,6.9,2.2l0.1,0.1c5.3,5.2,5.4,13.7,0.2,19.1l-17.2,17.2c39.1,36.4,99.7,36.3,138.6-0.3
		L310.6,354.8L310.6,354.8z"/>
	<path d="M206.7,240.5l0.1,0.1l0.2,0.1l0.3,0.2c0.3,0.2,0.6,0.4,0.9,0.5c1.5,0.6,3.2,0.6,4.7,0c0.3-0.1,0.6-0.3,0.9-0.5l0.4-0.3
		l0.4-0.3c0.1-0.1,0.2-0.2,0.3-0.3c-0.1,0.1-0.2,0.2-0.3,0.3c0,0,0.2-0.2,0.3-0.3c0.2-0.1,0.3-0.3,0.4-0.5c0.1-0.2,0.1-0.4,0-0.6
		c-1.3-8.8,2.7-17.6,10.1-22.5c7.4-4.9,17-5.1,24.6-0.4c6,3.7,10,9.9,10.9,16.9c0.8,7-1.6,14-6.6,19c-5.1,5.1-12.4,7.5-19.6,6.4
		c-0.2,0-0.3,0-0.5,0l-0.5,0.5c-2.4,2.4-2.4,6.2,0,8.6l24.9,24.9l24.9-24.9c5.2-5.2,13.6-5.2,18.9,0l0.4,0.4
		c1.7,1.8,2.5,4.3,2.1,6.8c-0.5,3.5,0.2,7,1.8,10.1c0.4,0.7,0.9,1.4,1.5,2.1c0.3,0.3,0.5,0.7,0.9,1c0.3,0.3,0.6,0.5,0.8,0.8l0.5,0.5
		c3.5,2.9,8.2,4.1,12.7,3.4c4.5-0.8,8.5-3.5,10.8-7.4c3-4.9,3.1-11.1,0.1-16.1c-0.2-0.3-0.4-0.7-0.7-1c-0.5-0.7-1-1.3-1.4-1.7
		c-0.2-0.2-0.4-0.4-0.6-0.6c-0.1-0.1-0.2-0.2-0.3-0.3c-0.2-0.2-0.4-0.4-0.6-0.6c-3.5-2.8-7.9-4-12.3-3.4c-2.5,0.4-5.1-0.4-7-2.2
		l-0.3-0.3c-5.1-5.2-5.1-13.6,0-18.9l16.6-16.7c-38.9-36.3-99.2-36.5-138.2-0.3l16.9,17L206.7,240.5z"/>
	<path d="M332.7,228.6l-16.6,16.6c-1.1,1.1-1.8,2.7-1.8,4.3s0.6,3.2,1.8,4.3c0.2,0.3,0.6,0.4,1,0.4c6.4-0.9,13,0.9,18,5.1
		c0.2,0.2,0.4,0.3,0.6,0.5s0.4,0.4,0.6,0.6c0.4,0.3,0.7,0.7,1,1c0.6,0.7,1.2,1.4,1.7,2.1c0.4,0.5,0.8,1.1,1.2,1.7
		c3.9,6.6,4.2,14.6,1,21.5s-9.7,11.7-17.2,12.9c-6.6,1.1-13.4-0.8-18.5-5.1l-0.6-0.5c-0.4-0.3-0.8-0.7-1.1-1c-0.5-0.5-1-1-1.4-1.6
		c-0.8-1-1.5-2-2.1-3.1c-2.4-4.5-3.4-9.6-2.6-14.6c0.1-0.2,0-0.5-0.1-0.7l-0.3-0.3c-1.1-1.2-2.7-1.8-4.3-1.8c-1.6,0-3.2,0.6-4.3,1.8
		l-24.8,24.8l24.6,24.6c2.6,2.5,4.1,5.9,4.2,9.5c0,3.6-1.4,7.1-3.9,9.6l-0.5,0.5c-1.8,1.7-4.3,2.5-6.7,2c-6.3-0.9-12.4,2-15.7,7.4
		c-3.3,5.4-3,12.2,0.7,17.4c0.1,0.2,0.2,0.3,0.4,0.5l0.3,0.4c0.8,1,1.8,1.9,2.8,2.6c0.4,0.3,0.8,0.6,1.2,0.9
		c4.9,3,11.2,3.1,16.1,0.1c5.5-3.3,8.4-9.5,7.5-15.8c-0.4-2.5,0.4-5.1,2.2-7l0.5-0.4c4.5-4.4,11.4-5,16.6-1.6
		c0.3,0.2,0.6,0.4,0.9,0.7c0.3,0.2,0.6,0.5,0.9,0.8l17.1,17.1C369.1,327.8,369,267.5,332.7,228.6z"/>
	<path d="M420.9,178.6c0-7.6-3-14.8-8.4-20.2l-15.8-15.8c-5.4-5.4-12.6-8.4-20.2-8.4s-14.8,3-20.2,8.4l-16.6,16.6
		c-13.4-8-27.8-13.9-42.8-17.7v-12.6h0.1c12.2,0,22.1-9.9,22.1-22.1v-25c0-12.2-9.9-22.1-22.1-22.1h-79.4
		c-12.2,0-22.1,9.9-22.1,22.1v25c0,12.2,9.9,22.1,22.1,22.1h0.1v12.7c-71.9,18.1-121.9,82-121.9,156.3
		c0,88.9,72.5,161.3,161.6,161.3S419,386.9,419,297.9c0-29.1-7.9-57.6-22.8-82.5l16.5-16.5C418,193.4,420.9,186.2,420.9,178.6z
		 M257.3,428.2c-72.1,0-130.7-58.5-130.7-130.4s58.6-130.4,130.7-130.4S388,225.9,388,297.8C387.9,369.7,329.3,428.2,257.3,428.2z
		 M266,128.8v8c-2.9-0.2-5.9-0.2-8.8-0.2s-5.9,0.1-8.8,0.2v-8H266z M226.3,98v-7.4h61.8V98H226.3z M364.9,177.7l11.6-11.6l12.5,12.5
		l-11.6,11.6C373.5,185.8,369.3,181.6,364.9,177.7z"/>
</g>
</svg>
