<?xml version="1.0" encoding="utf-8"?>
<!-- Generator: Adobe Illustrator 16.0.0, SVG Export Plug-In . SVG Version: 6.00 Build 0)  -->
<!DOCTYPE svg PUBLIC "-//W3C//DTD SVG 1.1//EN" "http://www.w3.org/Graphics/SVG/1.1/DTD/svg11.dtd">
<svg version="1.1" id="Layer_1" xmlns="http://www.w3.org/2000/svg" xmlns:xlink="http://www.w3.org/1999/xlink" x="0px" y="0px"
	 width="512px" height="512px" viewBox="0 0 512 512" enable-background="new 0 0 512 512" xml:space="preserve">
<path fill="#231F20" d="M319.305,464.868c6.487,2.048,13.402-1.556,15.447-8.036l12.763-40.452h52.76l12.764,40.452
	c1.655,5.253,6.509,8.606,11.735,8.606c1.228,0,2.477-0.178,3.708-0.57c6.486-2.049,10.084-8.964,8.039-15.443l-10.448-33.113
	c6.191-0.649,11.02-5.884,11.02-12.246c0-6.801-5.514-12.311-12.314-12.311h-6.451l-32.692-103.613
	c-1.616-5.124-6.369-8.606-11.739-8.606c-5.373,0-10.126,3.482-11.742,8.606L329.46,391.755h-6.451
	c-6.801,0-12.314,5.51-12.314,12.311c0,6.362,4.828,11.597,11.019,12.246l-10.447,33.113
	C309.221,455.904,312.821,462.819,319.305,464.868 M373.895,332.766l18.612,58.989h-37.224L373.895,332.766z"/>
<path fill="#231F20" d="M503.98,409.39c4.429,0,8.019-3.594,8.019-8.021V119.182c0-2.126-0.846-4.162-2.349-5.666L424.139,28
	c-1.506-1.5-3.543-2.346-5.67-2.346H238.36V24.05c0-13.259-10.787-24.05-24.05-24.05H24.051C10.787,0,0.001,10.791,0.001,24.05
	v258.676c0,13.259,10.786,24.049,24.05,24.049h61.458v197.208c0,4.428,3.59,8.018,8.019,8.018H503.98
	c4.429,0,8.019-3.59,8.019-8.018v-59.856c0-4.429-3.59-8.018-8.019-8.018c-4.428,0-8.018,3.589-8.018,8.018v51.843H101.545V306.774
	h112.766c13.263,0,24.05-10.79,24.05-24.049V144.832c0-4.428-3.586-8.016-8.015-8.016c-4.428,0-8.018,3.588-8.018,8.016v137.894
	c0,4.421-3.597,8.014-8.018,8.014H24.051c-4.422,0-8.019-3.593-8.019-8.014V24.05c0-4.421,3.597-8.016,8.019-8.016h190.26
	c4.421,0,8.018,3.595,8.018,8.016v78.031c0,4.43,3.59,8.018,8.018,8.018c4.429,0,8.015-3.588,8.015-8.018V41.688h172.119
	c-0.011,0.179-0.024,0.355-0.024,0.534v76.96c0,4.428,3.586,8.016,8.014,8.016h76.963c0.178,0,0.356-0.014,0.531-0.025v274.195
	C495.963,405.796,499.553,409.39,503.98,409.39 M426.486,53.025l58.141,58.141h-58.141V53.025z"/>
<path fill="#2A306E" d="M198.278,367.698h-53.444c-4.428,0-8.018,3.59-8.018,8.018c0,4.429,3.59,8.019,8.018,8.019h53.444
	c4.429,0,8.019-3.59,8.019-8.019C206.297,371.288,202.707,367.698,198.278,367.698"/>
<path fill="#2A306E" d="M198.278,410.456h-53.444c-4.428,0-8.018,3.586-8.018,8.018c0,4.429,3.59,8.015,8.018,8.015h53.444
	c4.429,0,8.019-3.586,8.019-8.015C206.297,414.042,202.707,410.456,198.278,410.456"/>
<path fill="#231F20" d="M212.709,33.671c0-4.428-3.59-8.018-8.019-8.018H33.67c-4.428,0-8.018,3.59-8.018,8.018v42.756
	c0,4.43,3.59,8.018,8.018,8.018H204.69c4.429,0,8.019-3.588,8.019-8.018V33.671z M196.677,68.408H41.688V41.688h154.988V68.408z"/>
<path fill="#231F20" d="M75.89,102.081c0-4.428-3.587-8.02-8.015-8.02H33.67c-4.428,0-8.018,3.592-8.018,8.02v34.205
	c0,4.428,3.59,8.016,8.018,8.016h34.205c4.428,0,8.015-3.587,8.015-8.016V102.081z M59.857,128.268H41.688v-18.169h18.169V128.268z"
	/>
<path fill="#231F20" d="M144.299,102.081c0-4.428-3.586-8.02-8.014-8.02H102.08c-4.429,0-8.018,3.592-8.018,8.02v34.205
	c0,4.428,3.589,8.016,8.018,8.016h34.205c4.428,0,8.014-3.587,8.014-8.016V102.081z M128.267,128.268h-18.173v-18.169h18.173
	V128.268z"/>
<path fill="#231F20" d="M212.709,102.081c0-4.428-3.59-8.02-8.019-8.02h-34.204c-4.432,0-8.015,3.592-8.015,8.02v34.205
	c0,4.428,3.583,8.016,8.015,8.016h34.204c4.429,0,8.019-3.587,8.019-8.016V102.081z M196.677,128.268H178.5v-18.169h18.177V128.268z
	"/>
<path fill="#231F20" d="M75.89,170.489c0-4.428-3.587-8.016-8.015-8.016H33.67c-4.428,0-8.018,3.588-8.018,8.016v34.203
	c0,4.43,3.59,8.021,8.018,8.021h34.205c4.428,0,8.015-3.591,8.015-8.021V170.489z M59.857,196.676H41.688v-18.171h18.169V196.676z"
	/>
<path fill="#231F20" d="M144.299,170.489c0-4.428-3.586-8.016-8.014-8.016H102.08c-4.429,0-8.018,3.588-8.018,8.016v34.203
	c0,4.43,3.589,8.021,8.018,8.021h34.205c4.428,0,8.014-3.591,8.014-8.021V170.489z M128.267,196.676h-18.173v-18.171h18.173V196.676
	z"/>
<path fill="#231F20" d="M67.875,230.883H33.67c-4.428,0-8.018,3.589-8.018,8.018v34.205c0,4.425,3.59,8.014,8.018,8.014h34.205
	c4.428,0,8.015-3.589,8.015-8.014V238.9C75.89,234.472,72.303,230.883,67.875,230.883 M59.857,265.088H41.688v-18.171h18.169
	V265.088z"/>
<path fill="#231F20" d="M136.285,230.883H102.08c-4.429,0-8.018,3.589-8.018,8.018v34.205c0,4.425,3.589,8.014,8.018,8.014h34.205
	c4.428,0,8.014-3.589,8.014-8.014V238.9C144.299,234.472,140.713,230.883,136.285,230.883 M128.267,265.088h-18.173v-18.171h18.173
	V265.088z"/>
<path fill="#231F20" d="M204.69,162.473h-34.204c-4.432,0-8.015,3.588-8.015,8.016v102.616c0,4.425,3.583,8.014,8.015,8.014h34.204
	c4.429,0,8.019-3.589,8.019-8.014V170.489C212.709,166.061,209.119,162.473,204.69,162.473 M196.677,265.088H178.5v-86.579h18.177
	V265.088z"/>
<path fill="#231F20" d="M336.375,86.392c-1.12-1.119-2.544-1.882-4.1-2.192l-29.702-5.941l-14.305-15.77
	c-2.973-3.277-8.043-3.525-11.322-0.551c-3.278,2.974-3.525,8.041-0.553,11.324c0,0,16.485,18.034,17.031,18.396l5.234,26.162
	c0.311,1.552,1.07,2.978,2.19,4.1l127.735,127.735c4.688,4.687,10.847,7.031,17.006,7.031c6.158,0,12.317-2.344,17.003-7.031
	l1.516-1.513c9.374-9.379,9.374-24.635,0-34.014l-1.135-1.133l12.472-12.471c3.14-3.145,3.072-8.421-0.15-11.479l-43.668-41.468
	c-3.207-3.051-8.281-2.918-11.332,0.293c-3.051,3.211-2.923,8.282,0.292,11.334l37.702,35.8l-6.658,6.653L336.375,86.392z
	 M310.691,96.235l16.063,3.213l77.267,77.268l-12.85,12.845l-77.27-77.264L310.691,96.235z M452.77,236.802l-1.509,1.513
	c-3.133,3.124-8.214,3.124-11.34,0l-37.409-37.417l12.846-12.845l37.412,37.411C455.893,228.588,455.893,233.678,452.77,236.802"/>
</svg>
