<?xml version="1.0" encoding="utf-8"?>
<!-- Generator: Adobe Illustrator 16.0.0, SVG Export Plug-In . SVG Version: 6.00 Build 0)  -->
<!DOCTYPE svg PUBLIC "-//W3C//DTD SVG 1.1//EN" "http://www.w3.org/Graphics/SVG/1.1/DTD/svg11.dtd">
<svg version="1.1" id="Layer_1" xmlns="http://www.w3.org/2000/svg" xmlns:xlink="http://www.w3.org/1999/xlink" x="0px" y="0px"
	 width="512px" height="512px" viewBox="0 0 512 512" enable-background="new 0 0 512 512" xml:space="preserve">
<path fill="#2A306E" d="M59.732,59.733V503.46c0,4.722,3.824,8.541,8.537,8.541h324.269c4.708,0,8.523-3.819,8.523-8.541V145.069
	c0-0.189-0.09-0.352-0.107-0.536c-0.043-0.751-0.188-1.485-0.438-2.193c-0.095-0.275-0.159-0.541-0.279-0.807
	c-0.416-0.927-0.987-1.772-1.704-2.498l-85.335-85.335c-0.726-0.721-1.575-1.292-2.511-1.704c-0.258-0.111-0.516-0.202-0.786-0.283
	c-0.717-0.245-1.454-0.391-2.206-0.442c-0.146,0.026-0.313-0.069-0.493-0.069H68.269C63.556,51.201,59.732,55.017,59.732,59.733
	 M371.933,136.528h-56.198V80.339L371.933,136.528z M76.799,68.266h221.867v76.803c0,4.712,3.819,8.532,8.532,8.532h76.803v341.335
	H76.799V68.266z"/>
<path fill="#2A306E" d="M418.135,443.734v17.064h25.597c4.717,0,8.536-3.819,8.536-8.541V8.536c0-4.721-3.819-8.537-8.536-8.537
	H119.467c-4.715,0-8.535,3.815-8.535,8.537v25.601h17.065V17.068h307.197v426.667H418.135z"/>
<rect x="127.999" y="221.864" fill="#2A306E" width="136.537" height="17.073"/>
<rect x="281.597" y="221.864" fill="#2A306E" width="51.202" height="17.073"/>
<rect x="127.999" y="273.063" fill="#2A306E" width="204.805" height="17.073"/>
<rect x="127.999" y="375.468" fill="#2A306E" width="204.805" height="17.064"/>
<rect x="204.796" y="324.266" fill="#2A306E" width="128.003" height="17.064"/>
<rect x="127.999" y="324.266" fill="#2A306E" width="59.736" height="17.064"/>
<rect x="127.999" y="426.67" fill="#2A306E" width="34.135" height="17.064"/>
<rect x="179.201" y="426.67" fill="#2A306E" width="153.603" height="17.064"/>
<path fill="#2A306E" d="M172.501,89.253c-31.582,0-57.185,25.605-57.185,57.181c0,31.588,25.604,57.194,57.185,57.194
	c31.582,0,57.189-25.605,57.189-57.194C229.691,114.858,204.083,89.253,172.501,89.253 M172.677,173.421h-24.779
	c0-17.863,15.691-17.863,19.172-22.532l0.399-2.129c-4.891-2.485-8.341-8.455-8.341-15.446c0-9.215,5.985-16.678,13.374-16.678
	s13.378,7.463,13.378,16.678c0,6.932-3.393,12.872-8.219,15.391l0.453,2.417c3.82,4.446,18.991,4.734,18.991,22.3H172.677z"/>
</svg>
