<?xml version="1.0" encoding="utf-8"?>
<!-- Generator: Adobe Illustrator 16.0.0, SVG Export Plug-In . SVG Version: 6.00 Build 0)  -->
<!DOCTYPE svg PUBLIC "-//W3C//DTD SVG 1.1//EN" "http://www.w3.org/Graphics/SVG/1.1/DTD/svg11.dtd">
<svg version="1.1" id="Layer_1" xmlns="http://www.w3.org/2000/svg" xmlns:xlink="http://www.w3.org/1999/xlink" x="0px" y="0px"
	 width="512px" height="512px" viewBox="0 0 512 512" enable-background="new 0 0 512 512" xml:space="preserve">
<path fill="#2A306E" d="M392.314,84.934c0.225,0.016,0.444,0.034,0.672,0.034c0.386,0,0.767-0.034,1.144-0.085
	c10.083,0.208,18.15,8.425,18.162,18.508c0,4.584,3.718,8.293,8.296,8.293c4.582,0,8.299-3.709,8.299-8.293
	c-0.02-16.488-11.502-30.752-27.608-34.303v-7.971c0-4.578-3.71-8.297-8.292-8.297c-4.578,0-8.295,3.72-8.295,8.297v8.35
	c-17.026,4.551-28.045,21.023-25.75,38.504c2.299,17.477,17.191,30.54,34.819,30.54c10.236,0,18.531,8.301,18.531,18.538
	c0,10.229-8.295,18.526-18.531,18.526c-10.232,0-18.527-8.297-18.527-18.526c0-4.582-3.714-8.295-8.296-8.295
	c-4.578,0-8.295,3.713-8.295,8.295c0.02,15.891,10.696,29.798,26.049,33.926v9.091c0,4.578,3.717,8.292,8.295,8.292
	c4.582,0,8.292-3.714,8.292-8.292v-8.712c17.521-3.831,29.338-20.256,27.404-38.087c-1.926-17.828-16.983-31.34-34.922-31.336
	c-9.949,0.004-18.123-7.855-18.52-17.799c-0.39-9.942,7.147-18.419,17.073-19.194V84.934z"/>
<path fill="#2A306E" d="M394.236,12.267c-51.029,0-94.58,33.297-110.896,77.885H77.455c-4.559,0-8.262,4.112-8.297,8.667
	l-1.955,290.997H8.516c-4.584,0-8.516,3.316-8.516,7.906v36.93c0.104,34.76,27.483,63.32,62.212,64.893v0.188h256.117v-0.25
	c2.075,0.078,2.928,0.25,4.236,0.25h0.181c35.943-0.063,65.058-29.219,65.058-65.158V247.868c2.07,0.11,4.268,0.173,6.413,0.173
	c64.939,0,117.783-52.946,117.783-117.892C512,65.208,459.184,12.267,394.236,12.267 M65.372,483.135h-0.054
	c-26.835-0.031-48.608-21.738-48.728-48.568v-28.16h240.56v28.033c0.016,17.322,6.928,33.912,19.208,46.117
	c0.872,0.873,1.945,1.549,2.864,2.578H65.372z M371.209,434.566c0.004,26.791-21.683,48.514-48.471,48.568h-0.157
	c-26.894-0.047-48.706-21.785-48.84-48.688v-36.725c0.066-2.121-0.739-4.182-2.244-5.674c-1.501-1.494-3.552-2.303-5.674-2.232
	H83.789l1.906-283.077h193.04c-1.47,7.596-2.231,15.309-2.271,23.039c-0.016,16.355,3.396,32.525,10.013,47.475h-78.351
	c-4.586,0-8.296,3.713-8.296,8.293c0,4.582,3.71,8.297,8.296,8.297h87.354c17.109,26.912,44.467,45.671,75.729,51.947V434.566z
	 M394.236,231.455c-55.878,0-101.186-45.302-101.182-101.186c0-55.882,45.304-101.179,101.186-101.179
	c55.878,0,101.178,45.301,101.178,101.179C495.362,186.125,450.095,231.392,394.236,231.455"/>
<path fill="#2A306E" d="M154.881,232.46c-14.647,0-26.554,11.533-26.554,25.702c0,14.186,11.906,25.715,26.554,25.715
	c14.643,0,26.552-11.529,26.552-25.715C181.433,243.994,169.523,232.46,154.881,232.46 M154.881,267.285
	c-5.498,0-9.964-4.094-9.964-9.123c0-5.028,4.47-9.111,9.964-9.111c5.489,0,9.963,4.087,9.963,9.111
	C164.844,263.191,160.37,267.285,154.881,267.285"/>
<path fill="#2A306E" d="M199.83,258.131c0,4.582,3.71,8.299,8.3,8.299h110.589c4.582,0,8.291-3.717,8.291-8.299
	c0-4.584-3.709-8.302-8.291-8.302H208.13C203.54,249.829,199.83,253.546,199.83,258.131"/>
<path fill="#2A306E" d="M154.881,160.35c-14.647,0-26.554,11.537-26.554,25.707c0,14.182,11.906,25.713,26.554,25.713
	c14.643,0,26.552-11.531,26.552-25.713C181.433,171.887,169.523,160.35,154.881,160.35 M154.881,195.179
	c-5.498,0-9.964-4.097-9.964-9.123c0-5.024,4.47-9.117,9.964-9.117c5.489,0,9.963,4.087,9.963,9.117
	c0,5.026-4.474,9.126-9.963,9.126V195.179z"/>
<path fill="#2A306E" d="M154.881,304.561c-14.647,0-26.554,11.529-26.554,25.707s11.906,25.707,26.554,25.707
	c14.643,0,26.552-11.529,26.552-25.707S169.523,304.561,154.881,304.561 M154.881,339.385c-5.498,0-9.964-4.086-9.964-9.117
	c0-5.029,4.47-9.115,9.964-9.115c5.489,0,9.963,4.086,9.963,9.115C164.844,335.291,160.37,339.385,154.881,339.385"/>
<path fill="#2A306E" d="M318.719,322.418H208.126c-4.586,0-8.296,3.717-8.296,8.299c0,4.574,3.71,8.291,8.296,8.291h110.593
	c4.582,0,8.291-3.717,8.291-8.291C327.01,326.135,323.301,322.418,318.719,322.418"/>
</svg>
