<?xml version="1.0" encoding="utf-8"?>
<!-- Generator: Adobe Illustrator 16.0.0, SVG Export Plug-In . SVG Version: 6.00 Build 0)  -->
<!DOCTYPE svg PUBLIC "-//W3C//DTD SVG 1.1//EN" "http://www.w3.org/Graphics/SVG/1.1/DTD/svg11.dtd">
<svg version="1.1" id="Layer_1" xmlns="http://www.w3.org/2000/svg" xmlns:xlink="http://www.w3.org/1999/xlink" x="0px" y="0px"
	 width="512px" height="512px" viewBox="0 0 512 512" enable-background="new 0 0 512 512" xml:space="preserve">
<g>
	<g>
		<defs>
			<path id="SVGID_1_" d="M17.09,407.764V104.266c0-10.447,8.458-18.909,18.914-18.909h439.992c10.454,0,18.909,8.462,18.909,18.909
				v303.498c0,10.42-8.455,18.927-18.909,18.927H36.004C25.548,426.689,17.09,418.184,17.09,407.764 M36.004,68.275
				C16.129,68.275,0,84.399,0,104.266v303.498c0,19.83,16.129,35.961,36.004,35.961h439.992c19.872,0,36.004-16.131,36.004-35.961
				V104.266c0-19.866-16.132-35.99-36.004-35.99L36.004,68.275L36.004,68.275z"/>
		</defs>
		<use xlink:href="#SVGID_1_"  overflow="visible"/>
		<clipPath id="SVGID_2_">
			<use xlink:href="#SVGID_1_"  overflow="visible"/>
		</clipPath>
		<polygon clip-path="url(#SVGID_2_)" points="148.287,-163.963 682.301,177.014 363.709,675.964 -170.301,334.982 		"/>
	</g>
</g>
<g>
	<g>
		<defs>
			<path id="SVGID_3_" d="M71.538,139.808c-1.956,2.169-2.865,5.09-2.539,8.004c0.38,3.167,0.921,6.88,1.708,10.953
				c1.671,8.344,1.671,8.344-0.671,13.294c-0.831,1.872-1.905,4.208-3.197,7.289c-2.795,6.919-4.844,14.501-5.965,22.589
				c-6.041,4.829-9.662,12.129-9.662,19.91v8.541c0,9.59,5.289,18.128,13.535,22.512c5.457,17.163,15.211,29.663,29.132,37.245
				v3.211l-32.174,15.871c-11.741,6.366-19.041,18.666-19.041,32.041v11.33c0,6.844,0,22.877,85.337,22.877
				c85.332,0,85.332-16.033,85.332-22.877v-10.621c0-13.955-7.755-26.459-20.127-32.662l-31.086-15.883v-3.287
				c13.923-7.582,23.67-20.082,29.135-37.245c8.241-4.384,13.531-12.922,13.531-22.512v-8.541c0-7.876-3.672-15.198-9.834-20.032
				c-5.288-32.258-27.827-48.586-66.951-48.586c-1.836,0-3.67,0.045-5.421,0.205c-10.248,0.825-20.159-1.38-27.542-6.324
				c-3.454-2.34-6.119-4.635-7.784-6.757c-1.979-2.534-5.054-3.808-8.121-3.808C76.303,136.545,73.479,137.624,71.538,139.808"/>
		</defs>
		<use xlink:href="#SVGID_3_"  overflow="visible"/>
		<clipPath id="SVGID_4_">
			<use xlink:href="#SVGID_3_"  overflow="visible"/>
		</clipPath>
		<polygon clip-path="url(#SVGID_4_)" points="150.108,54.126 328.719,286.969 105.889,457.896 -72.722,225.054 		"/>
	</g>
</g>
<g>
	<g>
		<defs>
			<path id="SVGID_5_" d="M255.997,179.182c-4.705,0-8.545,3.841-8.545,8.542c0,4.719,3.84,8.547,8.545,8.547h85.333
				c4.705,0,8.544-3.828,8.544-8.547c0-4.701-3.839-8.542-8.544-8.542H255.997z"/>
		</defs>
		<use xlink:href="#SVGID_5_"  overflow="visible"/>
		<clipPath id="SVGID_6_">
			<use xlink:href="#SVGID_5_"  overflow="visible"/>
		</clipPath>
		<rect x="247.452" y="179.182" clip-path="url(#SVGID_6_)" width="102.422" height="17.089"/>
	</g>
</g>
<g>
	<g>
		<defs>
			<path id="SVGID_7_" d="M375.456,179.182c-4.71,0-8.541,3.841-8.541,8.542c0,4.719,3.831,8.547,8.541,8.547h8.542
				c4.705,0,8.542-3.828,8.542-8.547c0-4.701-3.837-8.542-8.542-8.542H375.456z"/>
		</defs>
		<use xlink:href="#SVGID_7_"  overflow="visible"/>
		<clipPath id="SVGID_8_">
			<use xlink:href="#SVGID_7_"  overflow="visible"/>
		</clipPath>
		<rect x="366.915" y="179.182" clip-path="url(#SVGID_8_)" width="25.625" height="17.089"/>
	</g>
</g>
<g>
	<g>
		<defs>
			<path id="SVGID_9_" d="M255.997,324.266c-4.705,0-8.545,3.832-8.545,8.543c0,4.709,3.84,8.551,8.545,8.551h8.542
				c4.699,0,8.541-3.842,8.541-8.551c0-4.711-3.842-8.543-8.541-8.543H255.997z"/>
		</defs>
		<use xlink:href="#SVGID_9_"  overflow="visible"/>
		<clipPath id="SVGID_10_">
			<use xlink:href="#SVGID_9_"  overflow="visible"/>
		</clipPath>
		<rect x="247.452" y="324.266" clip-path="url(#SVGID_10_)" width="25.628" height="17.094"/>
	</g>
</g>
<g>
	<g>
		<defs>
			<path id="SVGID_11_" d="M298.665,324.266c-4.71,0-8.549,3.832-8.549,8.543c0,4.709,3.839,8.551,8.549,8.551h17.083
				c4.71,0,8.494-3.842,8.494-8.551c0-4.711-3.784-8.543-8.494-8.543H298.665z"/>
		</defs>
		<use xlink:href="#SVGID_11_"  overflow="visible"/>
		<clipPath id="SVGID_12_">
			<use xlink:href="#SVGID_11_"  overflow="visible"/>
		</clipPath>
		<rect x="290.116" y="324.266" clip-path="url(#SVGID_12_)" width="34.126" height="17.094"/>
	</g>
</g>
<g>
	<g>
		<defs>
			<path id="SVGID_13_" d="M349.874,324.266c-4.71,0-8.544,3.832-8.544,8.543c0,4.709,3.834,8.551,8.544,8.551h8.542
				c4.708,0,8.499-3.842,8.499-8.551c0-4.711-3.791-8.543-8.499-8.543H349.874z"/>
		</defs>
		<use xlink:href="#SVGID_13_"  overflow="visible"/>
		<clipPath id="SVGID_14_">
			<use xlink:href="#SVGID_13_"  overflow="visible"/>
		</clipPath>
		<rect x="341.33" y="324.266" clip-path="url(#SVGID_14_)" width="25.585" height="17.094"/>
	</g>
</g>
<g>
	<g>
		<defs>
			<path id="SVGID_15_" d="M392.54,324.266c-4.715,0-8.542,3.832-8.542,8.543c0,4.709,3.827,8.551,8.542,8.551h17.035
				c4.753,0,8.537-3.842,8.537-8.551c0-4.711-3.784-8.543-8.537-8.543H392.54z"/>
		</defs>
		<use xlink:href="#SVGID_15_"  overflow="visible"/>
		<clipPath id="SVGID_16_">
			<use xlink:href="#SVGID_15_"  overflow="visible"/>
		</clipPath>
		<rect x="383.998" y="324.266" clip-path="url(#SVGID_16_)" width="34.114" height="17.094"/>
	</g>
</g>
<g>
	<g>
		<defs>
			<path id="SVGID_17_" d="M437.664,326.717c-1.542,1.641-2.456,3.883-2.456,6.092c0,2.213,0.914,4.416,2.456,6.039
				c1.631,1.549,3.834,2.512,6.086,2.512c2.208,0,4.416-0.963,6.041-2.512c1.532-1.623,2.447-3.826,2.447-6.039
				c0-2.209-0.915-4.451-2.447-6.092c-1.625-1.553-3.876-2.338-6.1-2.338C441.465,324.379,439.246,325.164,437.664,326.717"/>
		</defs>
		<use xlink:href="#SVGID_17_"  overflow="visible"/>
		<clipPath id="SVGID_18_">
			<use xlink:href="#SVGID_17_"  overflow="visible"/>
		</clipPath>
		<rect x="435.208" y="324.379" clip-path="url(#SVGID_18_)" width="17.03" height="16.98"/>
	</g>
</g>
<g>
	<g>
		<defs>
			<path id="SVGID_19_" d="M255.997,230.388c-4.705,0-8.545,3.841-8.545,8.549c0,4.707,3.84,8.542,8.545,8.542H443.75
				c4.697,0,8.488-3.835,8.488-8.542c0-4.708-3.791-8.549-8.488-8.549H255.997z"/>
		</defs>
		<use xlink:href="#SVGID_19_"  overflow="visible"/>
		<clipPath id="SVGID_20_">
			<use xlink:href="#SVGID_19_"  overflow="visible"/>
		</clipPath>
		<rect x="247.452" y="230.388" clip-path="url(#SVGID_20_)" width="204.786" height="17.091"/>
	</g>
</g>
<g>
	<g>
		<defs>
			<path id="SVGID_21_" d="M255.997,281.604c-4.705,0-8.545,3.828-8.545,8.541c0,4.701,3.84,8.545,8.545,8.545H443.75
				c4.697,0,8.488-3.844,8.488-8.545c0-4.713-3.791-8.541-8.488-8.541H255.997z"/>
		</defs>
		<use xlink:href="#SVGID_21_"  overflow="visible"/>
		<clipPath id="SVGID_22_">
			<use xlink:href="#SVGID_21_"  overflow="visible"/>
		</clipPath>
		<rect x="247.452" y="281.604" clip-path="url(#SVGID_22_)" width="204.786" height="17.086"/>
	</g>
</g>
</svg>
