<?xml version="1.0" encoding="utf-8"?>
<!-- Generator: Adobe Illustrator 21.0.0, SVG Export Plug-In . SVG Version: 6.00 Build 0)  -->
<svg version="1.1" id="Layer_1" xmlns="http://www.w3.org/2000/svg" xmlns:xlink="http://www.w3.org/1999/xlink" x="0px" y="0px"
	 viewBox="0 0 512 512" style="enable-background:new 0 0 512 512;" xml:space="preserve">
<g>
	<path d="M438.6-0.4H73.4C32.9-0.4,0,32.5,0,73v365.1c0,40.5,32.9,73.4,73.4,73.4h365.2c40.5,0,73.4-32.9,73.4-73.4V73
		C512,32.5,479.1-0.4,438.6-0.4z M73.4,31.3h365.2c23,0,41.7,18.7,41.7,41.7v46.4h-48.6v-13c0-8.8-7.1-15.9-15.9-15.9
		s-15.9,7.1-15.9,15.9v13h-33.6v-13c0-8.8-7.1-15.9-15.9-15.9s-15.9,7.1-15.9,15.9v13H301v-13c0-8.8-7.1-15.9-15.9-15.9
		s-15.9,7.1-15.9,15.9v13h-33.6v-13c0-8.8-7.1-15.9-15.9-15.9c-8.8,0-15.9,7.1-15.9,15.9v13h-33.6v-13c0-8.8-7.1-15.9-15.9-15.9
		c-8.8,0-15.9,7.1-15.9,15.9v13H105v-13c0-8.8-7.1-15.9-15.9-15.9s-15.9,7.1-15.9,15.9v13H31.7V73C31.7,50,50.4,31.3,73.4,31.3z
		 M31.7,438.1v-287h41.5v13c0,8.8,7.1,15.9,15.9,15.9s15.9-7.1,15.9-15.9v-13h33.6v13c0,8.8,7.1,15.9,15.9,15.9
		c8.8,0,15.9-7.1,15.9-15.9v-13H204v13c0,8.8,7.1,15.9,15.9,15.9c8.8,0,15.9-7.1,15.9-15.9v-13h33.6v13c0,8.8,7.1,15.9,15.9,15.9
		s15.9-7.1,15.9-15.9v-13h33.6v13c0,8.8,7.1,15.9,15.9,15.9s15.9-7.1,15.9-15.9v-13h33.6v13c0,8.8,7.1,15.9,15.9,15.9
		s15.9-7.1,15.9-15.9v-13h48.6v194.2c-17.5-17.7-41.8-28.6-68.6-28.6c-53.3,0-96.6,43.4-96.6,96.7c0,25.7,10.1,49.1,26.5,66.4H73.4
		C50.4,479.8,31.7,461.1,31.7,438.1z M343.4,413.4c0-37.6,30.6-68.3,68.2-68.3s68.3,30.6,68.3,68.3c0,32.3-22.6,59.4-52.8,66.4
		h-30.9C366,472.8,343.4,445.7,343.4,413.4z"/>
	<path d="M441.1,432.3c8.4,0,15.2-6.8,15.2-15.2c0-8.4-6.8-15.2-15.2-15.2h-17.4v-17.4c0-8.4-6.8-15.2-15.2-15.2
		c-8.4,0-15.2,6.8-15.2,15.2V417c0,8.4,6.8,15.2,15.2,15.2L441.1,432.3L441.1,432.3z"/>
	<path d="M154.5,205.8c-4,0-7.9,1.6-10.8,4.5c-2.8,2.8-4.5,6.8-4.5,10.8s1.6,7.9,4.5,10.8c2.8,2.8,6.8,4.5,10.8,4.5
		s7.9-1.6,10.8-4.5c2.8-2.8,4.5-6.8,4.5-10.8s-1.6-7.9-4.5-10.8S158.5,205.8,154.5,205.8z"/>
	<path d="M219.8,205.8c-4,0-7.9,1.6-10.8,4.5c-2.8,2.8-4.5,6.8-4.5,10.8s1.6,7.9,4.5,10.8c2.8,2.8,6.8,4.5,10.8,4.5
		s7.9-1.6,10.8-4.5c2.8-2.8,4.5-6.8,4.5-10.8s-1.6-7.9-4.5-10.8C227.8,207.4,223.8,205.8,219.8,205.8z"/>
	<path d="M285.1,236.3c4,0,7.9-1.6,10.8-4.5c2.8-2.8,4.5-6.8,4.5-10.8s-1.6-7.9-4.5-10.8c-2.8-2.8-6.8-4.5-10.8-4.5
		s-7.9,1.6-10.8,4.5c-2.8,2.8-4.5,6.8-4.5,10.8s1.6,7.9,4.5,10.8C277.2,234.6,281.1,236.3,285.1,236.3z"/>
	<path d="M350.5,236.3c4,0,7.9-1.6,10.8-4.5s4.5-6.8,4.5-10.8s-1.6-7.9-4.5-10.8c-2.9-2.9-6.8-4.5-10.8-4.5s-7.9,1.6-10.8,4.5
		c-2.8,2.8-4.5,6.8-4.5,10.8s1.6,7.9,4.5,10.8C342.5,234.6,346.5,236.3,350.5,236.3z"/>
	<path d="M415.8,236.3c4,0,7.9-1.6,10.8-4.5c2.8-2.8,4.5-6.8,4.5-10.8s-1.6-7.9-4.5-10.8c-2.8-2.8-6.8-4.5-10.8-4.5
		s-7.9,1.6-10.8,4.5s-4.5,6.8-4.5,10.8s1.6,7.9,4.5,10.8C407.9,234.6,411.8,236.3,415.8,236.3z"/>
	<path d="M89.1,271.1c-4,0-7.9,1.6-10.8,4.5c-2.8,2.8-4.5,6.8-4.5,10.8s1.6,7.9,4.5,10.8c2.8,2.8,6.8,4.5,10.8,4.5s7.9-1.6,10.8-4.5
		c2.8-2.8,4.5-6.8,4.5-10.8s-1.6-7.9-4.5-10.8C97.1,272.7,93.2,271.1,89.1,271.1z"/>
	<path d="M154.5,271.1c-4,0-7.9,1.6-10.8,4.5c-2.8,2.8-4.5,6.8-4.5,10.8s1.6,7.9,4.5,10.8c2.8,2.8,6.8,4.5,10.8,4.5
		s7.9-1.6,10.8-4.5c2.8-2.8,4.5-6.8,4.5-10.8s-1.6-7.9-4.5-10.8C162.4,272.7,158.5,271.1,154.5,271.1z"/>
	<path d="M219.8,271.1c-4,0-7.9,1.6-10.8,4.5c-2.8,2.8-4.5,6.8-4.5,10.8s1.6,7.9,4.5,10.8c2.8,2.8,6.8,4.5,10.8,4.5
		s7.9-1.6,10.8-4.5c2.8-2.8,4.5-6.8,4.5-10.8s-1.6-7.9-4.5-10.8C227.8,272.7,223.8,271.1,219.8,271.1z"/>
	<path d="M285.1,301.6c4,0,7.9-1.6,10.8-4.5c2.8-2.8,4.5-6.8,4.5-10.8s-1.6-7.9-4.5-10.8c-2.8-2.8-6.8-4.5-10.8-4.5
		s-7.9,1.6-10.8,4.5c-2.8,2.8-4.5,6.8-4.5,10.8s1.6,7.9,4.5,10.8S281.1,301.6,285.1,301.6z"/>
	<path d="M350.5,301.6c4,0,7.9-1.6,10.8-4.5c2.8-2.8,4.5-6.8,4.5-10.8s-1.6-7.9-4.5-10.8c-2.8-2.8-6.8-4.5-10.8-4.5
		s-7.9,1.6-10.8,4.5c-2.8,2.8-4.5,6.8-4.5,10.8s1.6,7.9,4.5,10.8C342.5,300,346.5,301.6,350.5,301.6z"/>
	<path d="M415.8,301.6c4,0,7.9-1.6,10.8-4.5c2.8-2.8,4.5-6.8,4.5-10.8s-1.6-7.9-4.5-10.8c-2.8-2.8-6.8-4.5-10.8-4.5
		s-7.9,1.6-10.8,4.5c-2.8,2.8-4.5,6.8-4.5,10.8s1.6,7.9,4.5,10.8S411.8,301.6,415.8,301.6z"/>
	<path d="M89.1,336.4c-4,0-7.9,1.6-10.8,4.5c-2.8,2.8-4.5,6.8-4.5,10.8s1.6,7.9,4.5,10.8c2.8,2.8,6.8,4.5,10.8,4.5s7.9-1.6,10.8-4.5
		c2.8-2.8,4.5-6.8,4.5-10.8s-1.6-7.9-4.5-10.8C97.1,338.1,93.2,336.4,89.1,336.4z"/>
	<path d="M154.5,336.4c-4,0-7.9,1.6-10.8,4.5c-2.8,2.8-4.5,6.8-4.5,10.8s1.6,7.9,4.5,10.8c2.8,2.8,6.8,4.5,10.8,4.5
		s7.9-1.6,10.8-4.5c2.8-2.8,4.5-6.8,4.5-10.8s-1.6-7.9-4.5-10.8C162.4,338.1,158.5,336.4,154.5,336.4z"/>
	<path d="M219.8,336.4c-4,0-7.9,1.6-10.8,4.5c-2.8,2.8-4.5,6.8-4.5,10.8s1.6,7.9,4.5,10.8c2.8,2.8,6.8,4.5,10.8,4.5
		s7.9-1.6,10.8-4.5c2.8-2.8,4.5-6.8,4.5-10.8s-1.6-7.9-4.5-10.8C227.8,338.1,223.8,336.4,219.8,336.4z"/>
	<path d="M89.1,401.8c-4,0-7.9,1.6-10.8,4.5c-2.8,2.8-4.5,6.8-4.5,10.8s1.6,7.9,4.5,10.8c2.8,2.8,6.8,4.5,10.8,4.5s7.9-1.6,10.8-4.5
		c2.8-2.8,4.5-6.8,4.5-10.8s-1.6-7.9-4.5-10.8C97.1,403.4,93.2,401.8,89.1,401.8z"/>
	<path d="M154.5,401.8c-4,0-7.9,1.6-10.8,4.5c-2.8,2.8-4.5,6.8-4.5,10.8s1.6,7.9,4.5,10.8c2.8,2.8,6.8,4.5,10.8,4.5
		s7.9-1.6,10.8-4.5c2.8-2.8,4.5-6.8,4.5-10.8s-1.6-7.9-4.5-10.8C162.4,403.4,158.5,401.8,154.5,401.8z"/>
	<path d="M219.8,401.8c-4,0-7.9,1.6-10.8,4.5c-2.8,2.8-4.5,6.8-4.5,10.8s1.6,7.9,4.5,10.8c2.8,2.8,6.8,4.5,10.8,4.5
		s7.9-1.6,10.8-4.5c2.8-2.8,4.5-6.8,4.5-10.8s-1.6-7.9-4.5-10.8C227.8,403.4,223.8,401.8,219.8,401.8z"/>
	<path d="M285.1,336.4c-4,0-7.9,1.6-10.8,4.5c-2.8,2.8-4.5,6.8-4.5,10.8s1.6,7.9,4.5,10.8c2.8,2.8,6.8,4.5,10.8,4.5
		s7.9-1.6,10.8-4.5c2.8-2.8,4.5-6.8,4.5-10.8s-1.6-7.9-4.5-10.8C293.1,338.1,289.2,336.4,285.1,336.4z"/>
	<path d="M285.1,401.8c-4,0-7.9,1.6-10.8,4.5c-2.8,2.8-4.5,6.8-4.5,10.8s1.6,7.9,4.5,10.8c2.8,2.8,6.8,4.5,10.8,4.5
		s7.9-1.6,10.8-4.5c2.8-2.8,4.5-6.8,4.5-10.8s-1.6-7.9-4.5-10.8C293.1,403.4,289.1,401.8,285.1,401.8z"/>
</g>
</svg>
