<?xml version="1.0" encoding="utf-8"?>
<!-- Generator: Adobe Illustrator 21.0.0, SVG Export Plug-In . SVG Version: 6.00 Build 0)  -->
<svg version="1.1" id="Layer_1" xmlns="http://www.w3.org/2000/svg" xmlns:xlink="http://www.w3.org/1999/xlink" x="0px" y="0px"
	 viewBox="0 0 512 512" style="enable-background:new 0 0 512 512;" xml:space="preserve">
<path d="M438.6,0H73.4C32.9,0,0,32.9,0,73.4v365.2C0,479.1,32.9,512,73.4,512h365.2c40.5,0,73.4-32.9,73.4-73.4V73.4
	C512,32.9,479.1,0,438.6,0z M73.4,31.7h365.2c23,0,41.7,18.7,41.7,41.7V130l-80.5,28.8c-11.1,4-20,12-24.9,22.6
	c-0.4,0.8-0.7,1.6-1,2.4c-14.1-4.1-38-12-61.5-23.9c-14.8-7.5-29.3-11.3-43.1-11.3c-18.4,0-36.2,6.6-54.6,20.1
	c-12.5,0.3-28.9,1.7-47.4,3.3c-9.5,0.8-18.6,1.6-26.5,2.1c-0.6-4.3-1.8-8.4-3.7-12.4c-5-10.6-13.8-18.6-24.9-22.6l-80.5-28.8V73.4
	C31.7,50.4,50.4,31.7,73.4,31.7z M286.7,320.1c4.1,4.2,38.7,39.7,54.9,54.7c-1.1,1.5-2.8,2.8-4.2,3.5c-2.4,1.2-5,1.8-7.4,1.8
	s-3.6-0.6-3.8-0.9L326,379l-0.1-0.1l-0.5-0.4c-11.8-9.3-41.7-40.6-48.5-47.8c-2.6-2.8-6.4-4.4-10.3-4.4c-3.5,0-6.8,1.3-9.4,3.6
	c-2.8,2.5-4.4,5.9-4.5,9.6c-0.2,3.7,1.2,7.2,3.7,9.9c0.3,0.3,27.5,29.2,44.5,44.6c-1.4,2.5-3.5,4.5-6,5.6c-1.1,0.5-2.3,0.7-3.5,0.7
	c-2.1,0-4.2-0.8-6.1-2.2c-14.2-11.9-42.9-42-48.5-47.9c-2.6-2.8-6.3-4.4-10.2-4.4c-3.5,0-6.9,1.3-9.5,3.7c-2.7,2.5-4.3,6-4.4,9.7
	c-0.1,3.7,1.2,7.2,3.8,9.9c5,5.2,20.2,21.2,34.3,34.8c-5.7-1.3-12.6-4.1-16.4-6.6c-7-4.5-50.9-36.8-88.7-68
	c-5.9-4.9-19.3-14.8-31.1-23.5c-5.3-3.9-10.3-7.6-14.3-10.6l35.5-93.2c9.3-0.5,20.9-1.5,34-2.6c4.3-0.4,8.6-0.7,12.8-1.1
	c-11.5,13.3-22.2,30.5-20.2,47.3c1.2,10.1,6.7,18.4,16,24.2c5.2,3.2,11.9,4.9,19.3,4.9c16.8,0,35.1-8.2,46-20.6
	c8.1-1.3,14.1-3.4,19.9-6.1c11.5,10.5,26.4,22.6,42.2,35.4c28.5,23.1,60.8,49.3,69,63.5c2.8,4.8-0.1,8.4-3,10.6
	c-1.9,1.4-3.8,2.1-5.2,2.1l0,0L366,359l0,0c-0.1-0.1-0.2-0.2-0.4-0.3c-6.9-5.4-38.8-37.5-58.6-57.8c-2.7-2.7-6.2-4.2-10.1-4.2
	c-3.6,0-7,1.4-9.6,3.8c-2.7,2.6-4.3,6-4.3,9.7C282.7,313.9,284.1,317.4,286.7,320.1z M70.1,296c-2.3,6.1-8.4,10.2-15,10.2H39.9
	V142.6l62.8,22.5c4.1,1.5,7.3,4.4,9.1,8.2c1.8,3.8,2,8.1,0.4,12.1L70.1,296z M323.4,262.1c-18.7-15.2-36.3-29.5-47.6-40.6
	c-2.6-2.6-6.1-4-9.9-4c-2.3,0-4.5,0.6-6.6,1.6c-10.1,5.3-14.2,7.2-24.8,8.3c-4.3,0.4-8.1,2.8-10.4,6.4c-5.1,8-18,13.4-26.8,13.4
	c-2.7,0-3.9-0.6-4.3-0.8c-2.8-1.7-3-3.1-3-3.8c-0.7-5.7,5.6-18.7,20.8-33.7c22.9-22.5,41-32.6,58.9-32.6c9.3,0,19.1,2.7,30,8.2
	c29.9,15.2,59.7,24.1,73.2,27.8c0.2,0.9,0.5,1.7,0.8,2.6l37.6,98.8l-19,10.3C377.9,306.3,350.2,283.8,323.4,262.1z M399.8,205.1
	c-1.5-4-1.3-8.3,0.5-12.1s5-6.8,9.1-8.2l62.8-22.5v163.6h-15.3c-6.7,0-12.7-4.1-15-10.2L399.8,205.1z M438.6,480.3H73.4
	c-23,0-41.7-18.7-41.7-41.7V333.8h23.4c12,0,23.7-5.1,32-13.7c3.3,2.4,12.8,9.5,12.8,9.5c11.1,8.2,22.6,16.8,27.8,21
	c37.3,30.8,82.3,64.1,91.3,69.9s24.6,11.8,36.9,11.8c4.4,0,15.5,0,24.3-6.1c3.6,1.2,7.4,1.8,11.2,1.8c5,0,10-1.1,14.8-3.1
	c8-3.5,14.8-9.7,19.2-17.6c1.6,0.2,3.2,0.3,4.8,0.3c6.7,0,13.5-1.6,19.7-4.7c7.5-3.7,13.3-9,16.9-15.6l0,0c7.5,0,15.1-2.7,21.8-7.8
	c9.9-7.4,15.3-18.6,14.9-30.1l20.2-11c8.4,9.5,20.5,15.1,33.1,15.1h23.4v85C480.3,461.6,461.6,480.3,438.6,480.3z"/>
</svg>
