<?xml version="1.0" encoding="utf-8"?>
<!-- Generator: Adobe Illustrator 21.0.0, SVG Export Plug-In . SVG Version: 6.00 Build 0)  -->
<svg version="1.1" id="Layer_1" xmlns="http://www.w3.org/2000/svg" xmlns:xlink="http://www.w3.org/1999/xlink" x="0px" y="0px"
	 viewBox="0 0 512 512" style="enable-background:new 0 0 512 512;" xml:space="preserve">
<style type="text/css">
	.st0{fill:#2E3191;}
</style>
<g>
  <title>Layer 1</title>
  <g id="svg_1">
   <path id="svg_2" d="m438.6,0l-365.2,0c-40.5,0 -73.4,32.9 -73.4,73.4l0,365.2c0,40.5 32.9,73.4 73.4,73.4l365.2,0c40.5,0 73.4,-32.9 73.4,-73.4l0,-365.2c0,-40.5 -32.9,-73.4 -73.4,-73.4zm41.7,438.6c0,23 -18.7,41.7 -41.7,41.7l-365.2,0c-23,0 -41.7,-18.7 -41.7,-41.7l0,-365.2c0,-23 18.7,-41.7 41.7,-41.7l365.2,0c23,0 41.7,18.7 41.7,41.7l0,365.2z" class="st0" fill="#2e3191" stroke="null"/>
   <path stroke="null" id="svg_5" d="m255.99999,88.5c-92.507538,0 -167.499929,74.992533 -167.499929,167.499977c0,92.509494 74.992391,167.500017 167.499929,167.500017c92.509535,0 167.499969,-74.990509 167.499969,-167.500017c0,-92.507444 -74.990434,-167.499977 -167.499969,-167.499977zm-14.325479,75.302488l27.890308,0l0,29.666365l-27.890308,0l0,-29.666365zm46.157034,180.040393l-30.677534,0c-11.918385,0 -17.000614,-5.071109 -17.000614,-17.242382l0,-79.116208c0,-3.80288 -2.026709,-5.578942 -5.57677,-5.578942l-10.142215,0l0,-27.393511l30.679691,0c11.927229,0 16.987402,5.323887 16.987402,17.240171l0,79.37113c0,3.56117 2.026723,5.579049 5.57677,5.579049l10.142336,0l0,27.14068l0.010934,0l0,0.000013z" fill-opacity="null" stroke-opacity="null" stroke-width="null" fill="#2e3191"/>
  </g>
</g>
</svg>
