<svg xmlns="http://www.w3.org/2000/svg" viewBox="0 0 316.53 316.53"><defs><style>.cls-1{fill:#2e3191;}.cls-2{fill:none;stroke:#2e3191;stroke-miterlimit:10;stroke-width:20px;}</style></defs><title>icon - Shortcourse</title><g id="Layer_2" data-name="Layer 2"><g id="Layer_2-2" data-name="Layer 2"><path class="cls-1" d="M183.65,207.45"/><path class="cls-1" d="M63.58,122.73"/><path class="cls-1" d="M250.24,220H66.29a2.93,2.93,0,0,1-2.93-2.93V73a2.93,2.93,0,0,1,2.93-2.93H250.24A2.93,2.93,0,0,1,253.17,73v144A2.93,2.93,0,0,1,250.24,220Zm-181-5.86H247.31V76H69.22Z"/><line class="cls-1" x1="164.62" y1="183.53" x2="186.69" y2="150.02"/><path class="cls-1" d="M242.67,246.42H73.91c-13.65,0-22.24-9.71-23-26,0,0,0-.09,0-.13v-3.27a2.93,2.93,0,0,1,2.93-2.93H262.67a2.93,2.93,0,0,1,2.93,2.93v4.23c0,.07,0,.14,0,.2C264.49,237.33,256.14,246.42,242.67,246.42ZM56.79,220.25c.36,7.62,3.07,20.31,17.12,20.31H242.67c7.16,0,15.92-3.37,17.07-19.39V220h-203Z"/><path class="cls-1" d="M124.43,219.7v1.06c.1,2.29,1,7.51,6.5,7.51h54.7c5.31,0,6.31-4.78,6.48-7.2V219.7Z"/><path class="cls-1" d="M66.29,73V217H250.24V73ZM115,110A18.45,18.45,0,1,1,96.51,128.4,18.45,18.45,0,0,1,115,110Zm73.6,41.31-21.8,33.11a4.6,4.6,0,0,1,1,1.53,3.8,3.8,0,0,1-.75,4.48,5,5,0,0,1-3,1.43c-8.84.11-17.68,0-26.52.09v22.23h-51c-.05-13,0-32.18,0-45.13,0-10.73,7.07-18.61,17.27-18.85q11.2-.27,22.41.09c8.86.27,16.12,8.36,16.16,17.67,0,5.06,0,10.12,0,15.34.58,0,1.08.1,1.59.1h18.53a2.22,2.22,0,0,1,.35-1l22.07-33.51a2.25,2.25,0,0,1,3.76,2.47Zm55.29-58.08H158.72V90.83h85.13Zm-.19,5.63H159V96.45h84.67Zm-.38,5.63H159.1v-2.35h84.19Zm.19,5.63H159.29V107.7h84.19Z"/><rect class="cls-2" x="10" y="10" width="296.53" height="296.53" rx="32" ry="32"/></g></g></svg>