<?xml version="1.0" encoding="utf-8"?>
<!-- Generator: Adobe Illustrator 21.0.0, SVG Export Plug-In . SVG Version: 6.00 Build 0)  -->
<svg version="1.1" id="Layer_1" xmlns="http://www.w3.org/2000/svg" xmlns:xlink="http://www.w3.org/1999/xlink" x="0px" y="0px"
	 viewBox="0 0 512 512" style="enable-background:new 0 0 512 512;" xml:space="preserve">
<style type="text/css">
	.st0{fill:#2E3191;}
</style>
<g>
	<path class="st0" d="M109.2,76.3l-31.3,93h17.3l8.4-25.9h34.6l8.4,25.9h17.7l-31.4-93H109.2z M108.2,129.1l12.6-39.4l12.6,39.4
		H108.2z"/>
	<polygon class="st0" points="87.5,367.7 133.3,367.7 87.5,432.1 87.5,445.1 154.7,445.1 154.7,430.8 108.5,430.8 154.7,365.1 
		154.7,352.1 87.5,352.1 	"/>
	<path class="st0" d="M438.6,0H73.4C32.9,0,0,32.9,0,73.4v365.2C0,479.1,32.9,512,73.4,512h365.2c40.5,0,73.4-32.9,73.4-73.4V73.4
		C512,32.9,479.1,0,438.6,0z M480.3,438.6c0,23-18.7,41.7-41.7,41.7H73.4c-23,0-41.7-18.7-41.7-41.7V73.4c0-23,18.7-41.7,41.7-41.7
		h365.2c23,0,41.7,18.7,41.7,41.7V438.6z"/>
	<path class="st0" d="M149.3,262.1H137v-56.3c0-8.8-7.1-15.9-15.9-15.9s-15.9,7.1-15.9,15.9v56.3H92.9c-9,0-14.7,9.8-10.2,17.6
		l28.2,48.8c4.5,7.8,15.8,7.8,20.4,0l28.2-48.8C164,271.9,158.3,262.1,149.3,262.1z"/>
	<path class="st0" d="M426.3,77.9H214.9c-8.8,0-15.9,7.1-15.9,15.9s7.1,15.9,15.9,15.9h211.3c8.8,0,15.9-7.1,15.9-15.9
		S435,77.9,426.3,77.9z"/>
	<path class="st0" d="M426.3,144.7H214.9c-8.8,0-15.9,7.1-15.9,15.9c0,8.8,7.1,15.9,15.9,15.9h211.3c8.8,0,15.9-7.1,15.9-15.9
		C442.1,151.8,435,144.7,426.3,144.7z"/>
	<path class="st0" d="M426.3,211.6H214.9c-8.8,0-15.9,7.1-15.9,15.9c0,8.8,7.1,15.9,15.9,15.9h211.3c8.8,0,15.9-7.1,15.9-15.9
		C442.1,218.7,435,211.6,426.3,211.6z"/>
	<path class="st0" d="M426.3,278.5H214.9c-8.8,0-15.9,7.1-15.9,15.9c0,8.8,7.1,15.9,15.9,15.9h211.3c8.8,0,15.9-7.1,15.9-15.9
		C442.1,285.6,435,278.5,426.3,278.5z"/>
	<path class="st0" d="M426.3,345.3H214.9c-8.8,0-15.9,7.1-15.9,15.9c0,8.8,7.1,15.9,15.9,15.9h211.3c8.8,0,15.9-7.1,15.9-15.9
		C442.1,352.4,435,345.3,426.3,345.3z"/>
	<path class="st0" d="M426.3,412.2H214.9c-8.8,0-15.9,7.1-15.9,15.9s7.1,15.9,15.9,15.9h211.3c8.8,0,15.9-7.1,15.9-15.9
		S435,412.2,426.3,412.2z"/>
</g>
</svg>
