<?xml version="1.0" encoding="utf-8"?>
<!-- Generator: Adobe Illustrator 21.0.0, SVG Export Plug-In . SVG Version: 6.00 Build 0)  -->
<svg version="1.1" id="Layer_1" xmlns="http://www.w3.org/2000/svg" xmlns:xlink="http://www.w3.org/1999/xlink" x="0px" y="0px"
	 viewBox="0 0 512 512" style="enable-background:new 0 0 512 512;" xml:space="preserve">
<g>
	<path d="M440.4,123c-6.8-3.6-14.6-4.8-22.2-6.1c-17.4-2.8-17.4-4.6-17.4-7.7c0-6,10.2-7.6,15.5-7.6c4.4,0,7.9,0.7,10.5,1.8
		c1.2,0.9,2.2,2,2.6,3.2c1,2.8,3.2,4.8,5.7,5.7c2,1.6,4.6,2.6,7.3,2.6c1.3,0,2.7-0.2,3.9-0.7c6-2.2,9.1-8.8,6.9-14.8
		c-4.7-13-18.9-21-37-21c-10.1,0-18.8,2.5-25.4,6.8c-9.5,5-15.3,13.5-15.3,24c0,10.2,4.7,18.1,13.6,22.8c0.2,0.1,0.4,0.1,0.5,0.2
		c0.8,0.5,1.6,1.1,2.5,1.5c6.8,3.6,14.6,4.8,22.2,6.1c7.1,1.2,11.3,2.1,13.8,3.1c1.3,1.2,1.7,2.7,1.7,4.7c0,2.5-1.2,4.3-3,5.8
		c-3.3,1.4-7.6,1.9-10.6,1.9c-8.6,0-14.2-2.9-15.2-5.8c-1.7-4.6-6-7.6-10.9-7.6c-1.3,0-2.7,0.2-3.9,0.7c-1.2,0.4-2.3,1.1-3.2,1.8
		c0,0,0,0-0.1,0c-5,1.8-7.6,7.3-5.8,12.3c2.4,6.5,7.4,11.6,14.1,15.1c6.6,4.2,15.2,6.7,25,6.7c22.8,0,38.7-12.7,38.7-30.8
		C455,136.5,450,128.1,440.4,123z"/>
	<path d="M281.2,169.1c0.8,3.1,3.1,5.6,6,6.6c1.7,1.4,3.7,2.3,6,2.5c0.4,0,0.9,0.1,1.3,0.1l0,0c4.4,0,8.3-2.4,10.3-6.3l8.3-16.3
		l7.8,15.4c1.1,2.1,2.9,3.7,5.1,4.5c2,1.7,4.7,2.7,7.5,2.7c0.4,0,0.9,0,1.3-0.1c4.8-0.5,8.8-4,9.9-8.7l19.5-76.8
		c0.8-3,0.3-6.1-1.3-8.8c-1.6-2.7-4.1-4.5-7.1-5.3c-0.9-0.2-1.9-0.4-2.9-0.4c-2.7,0-5.2,1-7.3,2.6c-2.9,1.1-5.2,3.5-6,6.7
		l-11.1,43.8l-4.2-8.3c-2-3.9-5.9-6.3-10.3-6.3c-2.8,0-5.4,1-7.5,2.7c-2.1,0.8-4,2.4-5.1,4.5l-3.9,7.6L286.2,87
		c-1.3-5.1-5.9-8.7-11.2-8.7c-1,0-1.9,0.1-2.8,0.4c-1.7,0.4-3.2,1.2-4.5,2.3c-4.5,1.7-7.2,6.5-6,11.3L281.2,169.1z"/>
	<path d="M177.3,175.8c2,1.6,4.5,2.6,7.2,2.6h54.2c6.4,0,11.6-5.2,11.6-11.6c0-6.4-5.2-11.6-11.6-11.6h-42.6V140h24.6
		c6.4,0,11.6-5.2,11.6-11.6c0-6.4-5.2-11.6-11.6-11.6h-24.6v-15.2h42.6c6.4,0,11.6-5.2,11.6-11.6s-5.2-11.6-11.6-11.6h-54.2
		c-2.7,0-5.2,1-7.2,2.6c-3.7,1.3-6.4,4.8-6.4,9v76.8C170.9,170.9,173.6,174.4,177.3,175.8z"/>
	<path d="M69.3,175.8c2,1.6,4.5,2.6,7.2,2.6c6.4,0,11.6-5.2,11.6-11.6V123l42.7,50c1.1,1.3,2.5,2.2,4,2.7c2,1.7,4.6,2.6,7.3,2.6
		c1.4,0,2.7-0.2,4-0.7c4.5-1.7,7.6-6,7.6-10.9V90c0-6.4-5.2-11.6-11.6-11.6c-2.7,0-5.2,1-7.2,2.6c-3.7,1.3-6.4,4.8-6.4,9v43
		L85.3,82.5c-2.2-2.6-5.4-4.1-8.8-4.1c-1.4,0-2.7,0.2-4,0.7c-1.2,0.4-2.3,1.1-3.2,1.8c0,0,0,0-0.1,0c-3.8,1.4-6.3,5-6.3,9v76.8
		C62.9,170.9,65.6,174.4,69.3,175.8z"/>
	<path d="M438.5,228.1H77.4c-8.8,0-15.9,7.1-15.9,15.9c0,8.8,7.1,15.9,15.9,15.9h361.1c8.8,0,15.9-7.1,15.9-15.9
		C454.4,235.2,447.3,228.1,438.5,228.1z"/>
	<path d="M228.4,312.4h-151c-8.8,0-15.9,7.1-15.9,15.9s7.1,15.9,15.9,15.9h150.9c8.8,0,15.9-7.1,15.9-15.9
		C244.2,319.5,237.1,312.4,228.4,312.4z"/>
	<path d="M228.4,395.8h-151c-8.8,0-15.9,7.1-15.9,15.9s7.1,15.9,15.9,15.9h150.9c8.8,0,15.9-7.1,15.9-15.9
		C244.2,402.9,237.1,395.8,228.4,395.8z"/>
	<path d="M406.7,298.8h-78.4c-25.6,0-46.5,20.9-46.5,46.5v56.6c0,25.6,20.9,46.5,46.5,46.5h78.4c25.6,0,46.5-20.9,46.5-46.5v-56.6
		C453.2,319.7,432.3,298.8,406.7,298.8z M421.4,401.9c0,8.1-6.6,14.8-14.8,14.8h-78.4c-8.1,0-14.8-6.6-14.8-14.8v-56.6
		c0-8.1,6.6-14.8,14.8-14.8h78.4c8.1,0,14.8,6.6,14.8,14.8V401.9z"/>
	<path d="M438.6,0H73.4C32.9,0,0,32.9,0,73.4v365.2C0,479.1,32.9,512,73.4,512h365.2c40.5,0,73.4-32.9,73.4-73.4V73.4
		C512,32.9,479.1,0,438.6,0z M480.3,438.6c0,23-18.7,41.7-41.7,41.7H73.4c-23,0-41.7-18.7-41.7-41.7V73.4c0-23,18.7-41.7,41.7-41.7
		h365.2c23,0,41.7,18.7,41.7,41.7L480.3,438.6L480.3,438.6z"/>
</g>
</svg>
