<svg xmlns="http://www.w3.org/2000/svg" viewBox="0 0 316.53 316.53"><defs><style>.cls-1{fill:none;stroke:#2e3191;stroke-miterlimit:10;stroke-width:20px;}.cls-2{fill:#2e3191;}</style></defs><title>icon - report problem (แจ้งปัญหาการใช้งาน)</title><g id="Layer_2" data-name="Layer 2"><g id="Layer_2-2" data-name="Layer 2"><rect class="cls-1" x="10" y="10" width="296.53" height="296.53" rx="32" ry="32"/><path class="cls-2" d="M232.79,205.88a29.41,29.41,0,1,0,29.41,29.41A29.41,29.41,0,0,0,232.79,205.88Zm.18,11s1.44-.19,2.06,1.75l-1,21.88S233.9,242,233,242a1,1,0,0,1-1.21-1L230.54,219A2.21,2.21,0,0,1,233,216.91Zm-.18,33.37a2.43,2.43,0,1,1,2.43-2.43A2.43,2.43,0,0,1,232.79,250.28Z"/><polygon class="cls-2" points="217.91 123.05 217.4 123.05 217.91 123.14 217.91 123.05"/><path class="cls-2" d="M217.71,147.47V129l-.32-6q0-12.81,0-25.62,0-18.54,0-37.09V54.83a3,3,0,0,0-3-3H69.67a3,3,0,0,0-3,2.78c0,.51-.08,1-.13,1.47-.1,1.08-.19,2.1-.19,3.19,0,52.55,0,112.12,0,169.9,0,12.14,6.52,18.56,18.82,18.56H217.91v-14.1a10.17,10.17,0,0,1-.14-1.64C217.67,203.23,217.69,176.14,217.71,147.47ZM155.46,83.59a4.53,4.53,0,1,1-4.53,4.53A4.53,4.53,0,0,1,155.46,83.59Zm-60.8,44.29,25.64-24.17a3,3,0,0,1,4.18.06l19.74,19.74,14.41-13.33a3,3,0,0,1,4.16.08l17.42,17.42a3,3,0,1,1-4.24,4.24l-15.38-15.38-12.14,11.23a3,3,0,0,1-4.4,4.05L122.3,110.07,98.78,132.25a3,3,0,0,1-4.12-4.37Zm88.18,85.31H96.72a3,3,0,0,1,0-6h86.13a3,3,0,0,1,0,6Zm0-20.4H96.72a3,3,0,0,1,0-6h86.13a3,3,0,0,1,0,6Zm0-20.4H96.72a3,3,0,0,1,0-6h86.13a3,3,0,0,1,0,6Z"/></g></g></svg>