<?xml version="1.0" encoding="utf-8"?>
<!-- Generator: Adobe Illustrator 16.0.0, SVG Export Plug-In . SVG Version: 6.00 Build 0)  -->
<!DOCTYPE svg PUBLIC "-//W3C//DTD SVG 1.1//EN" "http://www.w3.org/Graphics/SVG/1.1/DTD/svg11.dtd">
<svg version="1.1" id="Layer_1" xmlns="http://www.w3.org/2000/svg" xmlns:xlink="http://www.w3.org/1999/xlink" x="0px" y="0px"
	 width="512px" height="512px" viewBox="0 0 512 512" enable-background="new 0 0 512 512" xml:space="preserve">
<path fill="#231F20" d="M99.757,100.551l0.25-0.25c0.003-0.003,0.119-0.119,0.122-0.122c6.939-6.936,6.886-18.133-0.052-25.074
	c-6.936-6.943-18.244-6.896-25.187,0.042l-0.417,0.415c-6.9,6.981-6.833,18.237,0.147,25.137c3.466,3.425,7.982,5.133,12.493,5.133
	C91.697,105.831,96.282,104.071,99.757,100.551"/>
<path fill="#231F20" d="M56.406,124.721c-8.583-4.779-19.404-1.694-24.175,6.885C5.695,179.265-4.953,235.446,2.245,289.805
	c7.434,56.157,32.589,107.071,72.74,147.224C123.332,485.375,187.611,512,255.984,512c68.37,0,132.645-26.625,180.993-74.972
	c48.35-48.344,74.973-112.623,74.973-180.993c0-68.368-26.623-132.647-74.973-180.992C354.49-7.442,226.748-23.793,126.318,35.279
	c-8.46,4.978-11.285,15.873-6.311,24.33c4.982,8.46,15.876,11.285,24.337,6.311c86.462-50.858,196.468-36.774,267.496,34.261
	c85.943,85.939,85.943,225.772,0,311.71c-41.631,41.631-96.982,64.56-155.856,64.56s-114.227-22.929-155.855-64.56
	C30.82,342.582,15.673,234.434,63.292,148.896C68.067,140.32,64.985,129.496,56.406,124.721"/>
<path fill="#231F20" d="M121.557,380.548c9.369,2.959,19.35-2.24,22.298-11.604l18.428-58.396h76.171l18.428,58.396
	c2.391,7.584,9.391,12.435,16.945,12.435c1.773,0,3.57-0.267,5.354-0.831c9.363-2.952,14.557-12.938,11.607-22.3l-15.088-47.801
	c8.939-0.935,15.908-8.489,15.908-17.676c0-9.816-7.957-17.777-17.777-17.777h-9.316l-47.194-149.589
	c-2.335-7.393-9.198-12.426-16.952-12.426c-7.757,0-14.622,5.034-16.952,12.426L136.22,274.994h-9.316
	c-9.82,0-17.777,7.961-17.777,17.777c0,9.187,6.967,16.741,15.907,17.676l-15.085,47.801
	C107.004,367.61,112.194,377.596,121.557,380.548 M200.37,189.832l26.87,85.162H173.5L200.37,189.832z"/>
<path fill="#231F20" d="M344.252,112.981c-9.818,0-17.775,7.96-17.775,17.777v19.555H306.92c-9.816,0-17.77,7.96-17.77,17.777
	c0,9.816,7.953,17.775,17.77,17.775h19.557v19.555c0,9.816,7.957,17.777,17.775,17.777c9.82,0,17.777-7.96,17.777-17.777v-19.555
	h19.557c9.816,0,17.773-7.959,17.773-17.775c0-9.816-7.957-17.777-17.773-17.777h-19.557v-19.555
	C362.029,120.941,354.072,112.981,344.252,112.981"/>
</svg>
