<?xml version="1.0" encoding="utf-8"?>
<!-- Generator: Adobe Illustrator 21.0.0, SVG Export Plug-In . SVG Version: 6.00 Build 0)  -->
<svg version="1.1" id="Layer_1" xmlns="http://www.w3.org/2000/svg" xmlns:xlink="http://www.w3.org/1999/xlink" x="0px" y="0px"
	 viewBox="0 0 512 512" style="enable-background:new 0 0 512 512;" xml:space="preserve">
<g>
	<path d="M126.8,263.5l-60,178.6H100l16.1-49.6h66.4l16.1,49.6h33.9l-60.4-178.6H126.8z M125,365l24.3-75.7l24.3,75.7H125z"/>
	<path d="M438.6,0.1H73.4C32.9,0.1,0,33.1,0,73.5v365.2c0,40.5,32.9,73.4,73.4,73.4h365.2c40.5,0,73.4-32.9,73.4-73.4V73.5
		C512,33.1,479.1,0.1,438.6,0.1z M480.3,438.7c0,23-18.7,41.7-41.7,41.7H73.4c-23,0-41.7-18.7-41.7-41.7V73.5
		c0-23,18.7-41.7,41.7-41.7h365.2c23,0,41.7,18.7,41.7,41.7L480.3,438.7L480.3,438.7z"/>
	<path d="M433.6,304.6c2.8-4.8,4.2-10.2,4.2-15.8c0-11.8-6.5-22.6-16.8-28V147.6c0-6.4-3.9-12.1-9.8-14.5L249.7,68.5
		c-1.9-0.7-3.8-1.1-5.8-1.1s-4,0.4-5.8,1.1L76.7,133.1c-3.9,1.6-6.9,4.5-8.6,8.4c-1.6,3.8-1.7,8.1-0.1,12c1.6,4,4.8,7.1,8.7,8.7
		l50.2,20.6v47.5h25.9v-37.1l85.3,33.5c1.9,0.7,3.8,1.1,5.8,1.1s4-0.4,5.8-1.1l78.6-31.3V231h23.9v-45.1l37.5-15.2v90.7
		c-9.6,5.7-15.4,15.9-15.5,27.2c0,5.4,1.4,10.7,4,15.5l-11.3,26.3c-3.3,7.8-0.3,16.8,6.9,20.5c2.3,1.2,4.7,1.8,7.2,1.8h48.4
		c4.2,0,8.1-1.6,11.1-4.6s4.6-6.9,4.6-11.1c0-2-0.4-3.9-1.1-5.7L433.6,304.6z M243.9,195.3l-119.3-47.7l119.3-47.7l32,12.8
		l-14.2,8.2c-5.1-3.3-11-5-17.2-5c-8.8,0-17.2,3.7-23.2,10c-5.8,6.2-8.9,14.3-8.6,22.8c0.3,8.5,3.8,16.4,10,22.2
		c5.9,5.6,13.6,8.6,21.8,8.6c8.7,0,17.2-3.7,23.2-10c5.4-5.8,8.4-13.1,8.6-20.8l36.5-21.1l50.4,20.1L243.9,195.3z M254.4,147.6
		c0,5.4-4.4,9.8-9.8,9.8c-5.4,0-9.8-4.4-9.8-9.8c0-5.4,4.4-9.8,9.8-9.8S254.4,142.2,254.4,147.6z M396.7,331.4l9.4-22l8.6,22H396.7z
		 M413,292.5c-0.5,0.7-1.1,1.2-1.8,1.8c-1.9,1.4-3.6,2.9-5.3,4.5c-1.6-1.6-3.4-3.2-5.3-4.6c-3.9-2.9-4.7-8.5-1.8-12.4
		c1.7-2.3,4.3-3.6,7.1-3.6c1.9,0,3.7,0.6,5.3,1.7c1.9,1.4,3.1,3.5,3.5,5.8C415.1,288.3,414.5,290.6,413,292.5z"/>
</g>
</svg>
