<?xml version="1.0" encoding="utf-8"?>
<!-- Generator: Adobe Illustrator 16.0.0, SVG Export Plug-In . SVG Version: 6.00 Build 0)  -->
<!DOCTYPE svg PUBLIC "-//W3C//DTD SVG 1.1//EN" "http://www.w3.org/Graphics/SVG/1.1/DTD/svg11.dtd">
<svg version="1.1" id="Layer_1" xmlns="http://www.w3.org/2000/svg" xmlns:xlink="http://www.w3.org/1999/xlink" x="0px" y="0px"
	 width="512px" height="512px" viewBox="0 0 512 512" enable-background="new 0 0 512 512" xml:space="preserve">
<polygon points="298.662,204.798 298.662,187.735 315.725,187.735 315.725,170.667 298.662,170.667 298.662,153.6 281.6,153.6 
	281.6,170.667 264.531,170.667 264.531,187.735 281.6,187.735 281.6,204.798 "/>
<path d="M213.331,128.001c-3.492-0.005-6.629,2.12-7.926,5.356l-34.136,85.334l15.855,6.352l8.094-20.247h36.23l8.086,20.247
	l15.858-6.352l-34.133-85.334C219.959,130.121,216.823,127.996,213.331,128.001 M202.042,187.733l11.289-28.226l11.293,28.226
	H202.042z"/>
<path d="M247.463,273.062c18.607,0.05,37.06-3.419,54.378-10.238l-6.355-15.841c-15.287,6.009-31.59,9.066-48.023,9.019
	c-56.46,0-102.396-34.458-102.396-76.8s45.937-76.8,102.396-76.8c56.468,0,102.402,34.458,102.402,76.8
	c-0.506,18.585-8.805,36.098-22.861,48.261l11.588,12.531c17.572-15.383,27.855-37.448,28.342-60.792
	c0-51.756-53.594-93.868-119.47-93.868C181.587,85.334,128,127.446,128,179.202C128,230.955,181.587,273.062,247.463,273.062"/>
<path d="M59.733,477.864h51.198v25.597c0,4.72,3.824,8.539,8.534,8.539h324.267c4.709,0,8.529-3.819,8.529-8.539V76.8
	c0-4.714-3.82-8.534-8.529-8.534h-25.602V42.669c0-4.714-3.818-8.534-8.533-8.534H162.13v-4.27C162.13,13.371,148.759,0,132.264,0
	c-16.495,0-29.866,13.371-29.866,29.866v4.27H85.33c-4.709,0-8.534,3.819-8.534,8.534v366.934H34.132
	c-4.709,0-8.529,3.819-8.529,8.529v25.597C25.603,462.582,40.878,477.864,59.733,477.864 M418.131,443.729V85.334h17.068v409.599
	H128v-17.068h255.997C402.848,477.864,418.131,462.582,418.131,443.729 M119.465,29.866c0-7.069,5.734-12.798,12.798-12.798
	c7.069,0,12.798,5.729,12.798,12.798v4.27h-25.597V29.866z M93.864,51.204h51.198V76.8c0,4.714-3.819,8.534-8.529,8.534
	c-4.714,0-8.534-3.819-8.534-8.534v-8.534h-17.068V76.8c0,14.141,11.463,25.602,25.602,25.602c14.141,0,25.597-11.461,25.597-25.602
	V51.204h238.933v392.526c0,9.429-7.639,17.067-17.066,17.067c-9.424,0-17.063-7.639-17.063-17.067v-25.597
	c0-4.71-3.826-8.529-8.535-8.529H93.864V51.204z M42.666,426.661h307.2v17.068c-0.01,5.999,1.57,11.888,4.58,17.067H59.733
	c-9.424,0-17.068-7.639-17.068-17.067V426.661z"/>
<rect x="153.601" y="298.668" width="17.068" height="17.058"/>
<rect x="187.731" y="298.668" width="187.735" height="17.058"/>
<rect x="119.465" y="332.794" width="256.001" height="17.067"/>
<rect x="119.465" y="366.93" width="221.867" height="17.067"/>
<rect x="469.33" y="366.93" width="17.066" height="110.935"/>
<rect x="469.33" y="494.933" width="17.066" height="17.067"/>
<rect x="42.666" y="119.469" width="17.068" height="110.931"/>
<rect x="42.666" y="85.334" width="17.068" height="17.063"/>
</svg>
