<?xml version="1.0" encoding="utf-8"?>
<!-- Generator: Adobe Illustrator 16.0.0, SVG Export Plug-In . SVG Version: 6.00 Build 0)  -->
<!DOCTYPE svg PUBLIC "-//W3C//DTD SVG 1.1//EN" "http://www.w3.org/Graphics/SVG/1.1/DTD/svg11.dtd">
<svg version="1.1" id="Layer_1" xmlns="http://www.w3.org/2000/svg" xmlns:xlink="http://www.w3.org/1999/xlink" x="0px" y="0px"
	 width="512px" height="512px" viewBox="0 0 512 512" enable-background="new 0 0 512 512" xml:space="preserve">
<path fill="#2A306E" d="M501.988,82.324h-17.24c-5.523,0-10.006,4.479-10.006,10.008c0,5.532,4.482,10.014,10.006,10.014h7.227
	v78.449H128.92v-78.449h275.955c5.529,0,10.016-4.482,10.016-10.014c0-5.529-4.486-10.008-10.016-10.008H118.909
	c-5.529,0-10.007,4.479-10.007,10.008v164.13H10.015C4.482,256.461,0,260.941,0,266.471v153.232c0,5.527,4.482,10.014,10.015,10.014
	h491.974c5.527,0,10.012-4.486,10.012-10.014V92.332C512,86.802,507.516,82.324,501.988,82.324 M230.48,276.486v9.803H130.331
	c-5.526,0-10.009,4.48-10.009,10.006c0,5.535,4.482,10.014,10.009,10.014h99.993v15.758H20.022v-15.758h30.142
	c5.525,0,10.008-4.479,10.008-10.014c0-5.525-4.482-10.006-10.008-10.006H20.022v-9.803H230.48z M20.022,342.086H230.48v67.604
	H20.022V342.086z M491.975,409.689H250.5v-45.418h48.924c5.525,0,10.012-4.486,10.012-10.008c0-5.525-4.486-10.012-10.012-10.012
	H250.5v-24.994h48.766c5.531,0,10.01-4.477,10.01-10.01c0-5.527-4.479-10.006-10.01-10.006H250.5v-22.756h48.766
	c5.531,0,10.01-4.479,10.01-10.016c0-5.523-4.479-10.009-10.01-10.009H128.92v-55.643h363.055V409.689z"/>
<path fill="#2A306E" d="M137.464,141.566c0,14.877,12.099,26.984,26.971,26.984c14.876,0,26.979-12.107,26.979-26.984
	c0-14.872-12.103-26.974-26.979-26.974C149.563,114.593,137.464,126.694,137.464,141.566 M171.394,141.566
	c0,3.839-3.121,6.955-6.959,6.955c-3.834,0-6.948-3.116-6.948-6.955c0-3.831,3.114-6.952,6.948-6.952
	C168.272,134.614,171.394,137.735,171.394,141.566"/>
<path fill="#2A306E" d="M196.388,141.566c0,14.877,12.111,26.984,26.984,26.984c14.872,0,26.978-12.107,26.978-26.984
	c0-14.872-12.105-26.974-26.978-26.974C208.499,114.593,196.388,126.694,196.388,141.566 M230.324,141.566
	c0,3.839-3.122,6.955-6.952,6.955c-3.837,0-6.959-3.116-6.959-6.955c0-3.831,3.122-6.952,6.959-6.952
	C227.202,134.614,230.324,137.735,230.324,141.566"/>
<path fill="#2A306E" d="M255.323,141.566c0,14.877,12.099,26.984,26.978,26.984c14.873,0,26.975-12.107,26.975-26.984
	c0-14.872-12.102-26.974-26.975-26.974C267.422,114.593,255.323,126.694,255.323,141.566 M289.254,141.566
	c0,3.839-3.119,6.955-6.953,6.955s-6.959-3.116-6.959-6.955c0-3.831,3.125-6.952,6.959-6.952S289.254,137.735,289.254,141.566"/>
<path fill="#2A306E" d="M444.668,102.384c0.764,0,1.529-0.081,2.301-0.265l0.348-0.082c5.377-1.265,8.715-6.658,7.451-12.035
	c-1.266-5.385-6.646-8.719-12.039-7.45l-0.346,0.076c-5.387,1.266-8.719,6.656-7.451,12.039
	C436.012,99.276,440.127,102.384,444.668,102.384"/>
<path fill="#2A306E" d="M212.073,352.424h-95.706c-5.528,0-10.01,4.482-10.01,10.014v29.373c0,5.527,4.481,10.008,10.01,10.008
	h95.706c5.535,0,10.013-4.48,10.013-10.008v-29.373C222.086,356.906,217.608,352.424,212.073,352.424 M202.068,381.799h-75.689
	v-9.35h75.689V381.799z"/>
<path fill="#2A306E" d="M83.531,352.424H38.818c-5.532,0-10.012,4.482-10.012,10.014c0,5.529,4.479,10.012,10.012,10.012h44.713
	c5.525,0,10.015-4.482,10.015-10.012C93.546,356.906,89.061,352.424,83.531,352.424"/>
<path fill="#2A306E" d="M83.531,382.66H38.818c-5.532,0-10.012,4.486-10.012,10.018c0,5.523,4.479,10.01,10.012,10.01h44.713
	c5.525,0,10.015-4.486,10.015-10.01C93.546,387.146,89.061,382.66,83.531,382.66"/>
<path fill="#2A306E" d="M347.838,342.086h117.121c5.533,0,10.01-4.48,10.01-10.014v-104.96c0-5.532-4.477-10.013-10.01-10.013
	H347.838c-5.525,0-10.012,4.48-10.012,10.013v104.96C337.826,337.605,342.313,342.086,347.838,342.086 M357.846,237.12h97.105
	v84.946h-97.105V237.12z"/>
<path fill="#2A306E" d="M174.659,237.122h124.606c5.525,0,10.01-4.482,10.01-10.012c0-5.528-4.484-10.011-10.01-10.011H174.659
	c-5.526,0-10.012,4.482-10.012,10.011C164.647,232.64,169.133,237.122,174.659,237.122"/>
<path fill="#2A306E" d="M464.959,361.107h-116.59c-5.531,0-10.016,4.477-10.016,10.014c0,5.523,4.484,10.006,10.016,10.006h116.59
	c5.533,0,10.012-4.482,10.012-10.006C474.971,365.584,470.492,361.107,464.959,361.107"/>
<path fill="#2A306E" d="M90.518,306.35c0.759,0,1.533-0.08,2.303-0.268l0.344-0.08c5.382-1.266,8.726-6.658,7.452-12.031
	c-1.265-5.387-6.651-8.723-12.037-7.457l-0.343,0.08c-5.382,1.268-8.718,6.658-7.452,12.035
	C81.867,303.242,85.981,306.35,90.518,306.35"/>
</svg>
