<?xml version="1.0" encoding="utf-8"?>
<!-- Generator: Adobe Illustrator 21.0.0, SVG Export Plug-In . SVG Version: 6.00 Build 0)  -->
<svg version="1.1" id="Layer_1" xmlns="http://www.w3.org/2000/svg" xmlns:xlink="http://www.w3.org/1999/xlink" x="0px" y="0px"
	 viewBox="0 0 512 512" style="enable-background:new 0 0 512 512;" xml:space="preserve">
<style type="text/css">
	.st0{fill:#2E3191;}
</style>
<g>
	<path class="st0" d="M500.6,308.3l-23.7-23.7c-5.7-5.7-13.3-8.9-21.4-8.9c-8.1,0-15.7,3.1-21.4,8.9L305.8,412.7
		c-0.7,0.7-1.1,1.5-1.4,2.4l-17.3,63.4l-3.3,3.3c-5.1,5.1-5.3,13.2-0.8,18.6c0.2,0.4,0.5,0.7,0.8,1c0.2,0.2,0.5,0.4,0.8,0.6
		c2.5,2.1,5.6,3.3,8.9,3.3c3.7,0,7.1-1.4,9.7-4l3.3-3.3l63.4-17.3c0.9-0.2,1.7-0.7,2.4-1.4l128.2-128.2c5.7-5.7,8.9-13.3,8.9-21.4
		C509.5,321.6,506.3,314,500.6,308.3z M433.6,323.8l19.8-19.8c0.7-0.7,1.5-0.8,2-0.8c0.8,0,1.5,0.3,2,0.8l23.8,23.7
		c0.7,0.7,0.8,1.5,0.8,2c0,0.4-0.1,1.3-0.8,2l-19.8,19.8L433.6,323.8z M324.1,447.4l13.6,13.6l-18.7,5.1L324.1,447.4z M414.2,343.2
		l27.7,27.7l-77.7,77.7l-27.7-27.7L414.2,343.2z"/>
	<path class="st0" d="M257,114.3c-8.5,0-15.5,6.9-15.5,15.5s6.9,15.5,15.5,15.5h169c8.5,0,15.5-6.9,15.5-15.5s-6.9-15.5-15.5-15.5
		H257z"/>
	<path class="st0" d="M441.5,245.4c0-8.5-6.9-15.5-15.5-15.5H257c-8.5,0-15.5,6.9-15.5,15.5c0,8.5,6.9,15.5,15.5,15.5h169
		C434.6,260.9,441.5,253.9,441.5,245.4z"/>
	<path class="st0" d="M200.7,71.1c-2.8-2.4-6.4-3.7-10.1-3.7c-4.5,0-8.8,2-11.8,5.4l-54.9,64.1l-31.3-23.5c-2.7-2-5.9-3.1-9.3-3.1
		c-4.9,0-9.5,2.3-12.4,6.2c-2.5,3.3-3.5,7.4-3,11.5c0.6,4.1,2.7,7.7,6,10.2l42.9,32.2c2.7,2,5.9,3.1,9.3,3.1c4.5,0,8.8-2,11.8-5.4
		l64.4-75.1c2.7-3.1,4-7.1,3.7-11.3S203.9,73.8,200.7,71.1z"/>
	<path class="st0" d="M190.7,182.9c-4.5,0-8.8,2-11.8,5.4l-54.9,64.1l-31.3-23.5c-2.7-2-5.9-3.1-9.3-3.1c-4.8,0-9.5,2.3-12.4,6.2
		c-2.5,3.3-3.5,7.4-3,11.5c0.6,4.1,2.7,7.7,6,10.2l42.9,32.2c2.7,2,5.9,3.1,9.3,3.1c4.5,0,8.8-2,11.8-5.4l64.4-75.1
		c2.7-3.1,4-7.1,3.7-11.3c-0.3-4.1-2.2-7.9-5.4-10.6C197.9,184.3,194.4,182.9,190.7,182.9z"/>
	<path class="st0" d="M241.5,512H73.5C33,512,0,479.1,0,438.6V73.4C0,32.9,33,0,73.5,0h365.2C479.1,0,512,32.9,512,73.4v187.8
		c0,8.8-7.1,15.9-15.9,15.9c-8.8,0-15.9-7.1-15.9-15.9V73.4c0-23-18.7-41.7-41.7-41.7H73.5c-23,0-41.7,18.7-41.7,41.7v365.2
		c0,23,18.7,41.7,41.7,41.7h168.1c8.8,0,15.9,7.1,15.9,15.9S250.3,512,241.5,512z"/>
</g>
</svg>
