<?xml version="1.0" encoding="utf-8"?>
<!-- Generator: Adobe Illustrator 16.0.0, SVG Export Plug-In . SVG Version: 6.00 Build 0)  -->
<!DOCTYPE svg PUBLIC "-//W3C//DTD SVG 1.1//EN" "http://www.w3.org/Graphics/SVG/1.1/DTD/svg11.dtd">
<svg version="1.1" id="Layer_1" xmlns="http://www.w3.org/2000/svg" xmlns:xlink="http://www.w3.org/1999/xlink" x="0px" y="0px"
	 width="512px" height="512px" viewBox="0 0 512 512" enable-background="new 0 0 512 512" xml:space="preserve">
<rect x="160" y="33.362" width="320" height="15.998"/>
<rect x="32" y="33.362" width="16.002" height="15.998"/>
<rect x="64" y="33.362" width="16.002" height="15.998"/>
<rect x="96" y="33.362" width="16.002" height="15.998"/>
<polygon points="190.931,275.982 172.794,257.85 184.105,246.528 190.931,253.362 207.896,236.39 219.207,247.706 "/>
<polygon points="190.931,404.327 172.794,386.19 184.105,374.871 190.931,381.7 207.896,364.735 219.207,376.051 "/>
<rect x="272.002" y="225.36" width="95.996" height="15.998"/>
<rect x="272.002" y="265.361" width="63.996" height="15.998"/>
<rect x="272.002" y="353.36" width="95.996" height="15.998"/>
<rect x="272.002" y="393.356" width="63.996" height="15.998"/>
<path d="M0,1.362v431.996h112.002v56.573l35.2,20.706l27.199-15.993l27.203,15.993l27.198-15.993L256,510.638l27.198-15.993
	l27.198,15.993l27.207-15.993l27.199,15.993l35.195-20.706v-56.573H512V1.362H0z M384,480.785l-19.197,11.294l-27.199-16.002
	l-27.207,16.002l-27.198-16.002L256,492.079l-27.199-16.002l-27.198,16.002L174.4,476.077l-27.199,16.002L128,480.785V129.36h192v64
	h64V480.785z M335.998,177.362v-36.687l36.69,36.687H335.998z M495.998,417.36h-96V182.046l-68.687-68.684h-219.31V417.36h-96
	V81.362h479.996V417.36z M495.998,65.364H16.006v-48h479.992V65.364z"/>
<path d="M196,201.361c-28.719,0-51.999,23.283-51.999,51.998c0,28.72,23.279,51.999,51.999,51.999s51.999-23.279,51.999-51.999
	C247.965,224.657,224.703,201.397,196,201.361 M196,289.36c-19.883,0-36-16.113-36-36.001c0-19.881,16.117-35.996,36-35.996
	s36,16.115,36,35.996C231.976,273.238,215.875,289.339,196,289.36"/>
<path d="M196,329.361c-28.719,0-51.999,23.278-51.999,51.998s23.279,51.999,51.999,51.999s51.999-23.279,51.999-51.999
	C247.965,352.657,224.703,329.399,196,329.361 M196,417.36c-19.883,0-36-16.113-36-36.001s16.117-36,36-36s36,16.112,36,36
	C231.976,401.238,215.875,417.339,196,417.36"/>
</svg>
