<?xml version="1.0" encoding="utf-8"?>
<!-- Generator: Adobe Illustrator 16.0.0, SVG Export Plug-In . SVG Version: 6.00 Build 0)  -->
<!DOCTYPE svg PUBLIC "-//W3C//DTD SVG 1.1//EN" "http://www.w3.org/Graphics/SVG/1.1/DTD/svg11.dtd">
<svg version="1.1" id="Layer_1" xmlns="http://www.w3.org/2000/svg" xmlns:xlink="http://www.w3.org/1999/xlink" x="0px" y="0px"
	 width="512px" height="512px" viewBox="0 0 512 512" enable-background="new 0 0 512 512" xml:space="preserve">
<path d="M469.334,102.399h-93.867V0h-17.065v196.266c0,4.713,3.818,8.533,8.526,8.533h28.935L256,288.711l-139.862-83.912h28.93
	c4.708,0,8.535-3.82,8.535-8.533V0h-17.074v102.399H42.666C19.115,102.428,0.029,121.515,0,145.063v238.935
	c0.029,23.555,19.115,42.637,42.666,42.67h139.792l-17.066,34.123H8.535c-4.712,0-8.535,3.826-8.535,8.539
	C0,512,44.964,512,59.736,512H452.26c14.776,0,59.74,0,59.74-42.67c0-4.713-3.822-8.539-8.535-8.539H346.604l-17.062-34.123h139.792
	c23.551-0.033,42.637-19.115,42.666-42.67V145.063C511.971,121.515,492.885,102.428,469.334,102.399 M85.332,187.731
	c-4.713,0-8.531,3.824-8.531,8.535c0,2.994,1.574,5.769,4.137,7.311l170.668,102.402c2.704,1.623,6.083,1.623,8.783,0
	l170.668-102.402c4.042-2.431,5.346-7.671,2.92-11.713c-1.545-2.565-4.319-4.133-7.31-4.133h-51.201v-34.133h85.332v204.799H51.201
	V153.598h85.328v34.133H85.332z M452.26,494.93H59.736c-28.358,0-38.658-6.567-41.635-17.061h475.799
	C490.922,488.362,480.623,494.93,452.26,494.93 M327.521,460.791H184.475l17.065-34.123h108.92L327.521,460.791z M494.935,383.998
	c0,14.138-11.463,25.601-25.601,25.601H42.666c-14.138,0-25.601-11.463-25.601-25.601V145.063c0-14.138,11.463-25.596,25.601-25.596
	h93.863v17.063H42.666c-4.713,0-8.531,3.82-8.531,8.533v221.873c0,4.712,3.818,8.522,8.531,8.522h426.668
	c4.713,0,8.53-3.811,8.53-8.522V145.063c0-4.713-3.817-8.533-8.53-8.533h-93.867v-17.063h93.867
	c14.138,0,25.601,11.458,25.601,25.596V383.998z"/>
<path d="M179.199,173.225v31.574h17.07v-31.574c0-15.554,12.605-28.162,28.16-28.162h63.144c15.554,0,28.159,12.607,28.159,28.162
	v31.574h17.069v-31.574c0.046-22.801-16.94-42.045-39.568-44.832c13.31-10.477,21.501-26.151,22.499-43.061
	c0-56.421-32.482-68.265-59.731-68.265c-27.249,0-59.731,11.844-59.731,68.265c0.985,16.918,9.181,32.605,22.503,43.084
	C196.148,131.205,179.166,150.437,179.199,173.225 M214.519,93.396c14.61-1.203,40.959-5.627,53.25-21.794l30.496,18.297
	C294.844,110.82,269.099,128,256,128c-19.033-3.241-34.864-16.44-41.481-34.579V93.396z M256,34.131
	c24.217,0,37.543,11.455,41.361,35.345l-28.433-17.063c-4.042-2.425-9.284-1.114-11.707,2.925c-0.319,0.53-0.58,1.1-0.783,1.688
	c-4.311,12.955-27.625,17.854-42.662,19.271C216.088,47.701,229.546,34.131,256,34.131"/>
<polygon points="409.599,341.336 426.668,341.336 426.668,324.267 443.733,324.267 443.733,307.196 426.668,307.196 
	426.668,290.135 409.599,290.135 409.599,307.196 392.533,307.196 392.533,324.267 409.599,324.267 "/>
</svg>
