<?xml version="1.0" encoding="utf-8"?>
<!-- Generator: Adobe Illustrator 21.0.0, SVG Export Plug-In . SVG Version: 6.00 Build 0)  -->
<svg version="1.1" id="Layer_1" xmlns="http://www.w3.org/2000/svg" xmlns:xlink="http://www.w3.org/1999/xlink" x="0px" y="0px"
	 viewBox="0 0 512 512" style="enable-background:new 0 0 512 512;" xml:space="preserve">
<path d="M495,79c-7.2,0-13.9,0.1-20.7,0.2V56.4h-7.5c-146,0-195,34.9-210.8,53.8c-15.8-18.9-64.7-53.8-210.8-53.8h-7.5v22.9
	C30.9,79.1,24.2,79,17,79H0v331.3h17c180.2,0,216.9,41.3,222.2,49H273c5.7-8,43.2-49,221.9-49h17V79H495z M244.7,395.4
	c-25.2-18.6-77.9-40.1-188.2-41.5V75.3c154.5,2,184.3,44.3,188.2,51.2V395.4z M455.5,353.8c-110.3,1.4-163.1,22.9-188.2,41.5V126.6
	c4.3-7.5,34.9-49.3,188.2-51.3V353.8z"/>
</svg>
