<?xml version="1.0" encoding="utf-8"?>
<!-- Generator: Adobe Illustrator 16.0.0, SVG Export Plug-In . SVG Version: 6.00 Build 0)  -->
<!DOCTYPE svg PUBLIC "-//W3C//DTD SVG 1.1//EN" "http://www.w3.org/Graphics/SVG/1.1/DTD/svg11.dtd">
<svg version="1.1" id="Layer_1" xmlns="http://www.w3.org/2000/svg" xmlns:xlink="http://www.w3.org/1999/xlink" x="0px" y="0px"
	 width="512px" height="512px" viewBox="0 0 512 512" enable-background="new 0 0 512 512" xml:space="preserve">
<path d="M490.584,230.422h-29.793v-62.047c0-12.834-10.457-23.287-23.281-23.287h-27.938v-20.63L276.595,0H68.245v85.333H23.339
	C10.454,85.333,0,95.787,0,108.671v385.954h0.5c0.662,3.125,1.995,6.125,4,8.791C8.662,508.875,15,512,21.879,512h381.944
	c9.886,0,18.563-6.666,20.927-15.458L512,257.291v-1.537C512,241.088,503,230.422,490.584,230.422 M264.554,19.542
	c0-0.917,1.06-1.375,1.737-0.745l124.512,116c0.613,0.656,0.197,1.745-0.721,1.745H264.554V19.542z M136.547,42.667h85.333
	c4.704,0,8.542,3.828,8.542,8.541c0,4.708-3.838,8.547-8.542,8.547h-85.333c-4.719,0-8.547-3.839-8.547-8.547
	C128,46.495,131.828,42.667,136.547,42.667 M136.547,102.422h85.333c4.704,0,8.542,3.786,8.542,8.488
	c0,4.76-3.838,8.542-8.542,8.542h-85.333c-4.719,0-8.547-3.782-8.547-8.542C128,106.208,131.828,102.422,136.547,102.422
	 M136.547,162.12h204.787c4.696,0,8.551,3.843,8.551,8.547c0,4.702-3.854,8.541-8.551,8.541H136.547
	c-4.719,0-8.547-3.839-8.547-8.541C128,165.963,131.828,162.12,136.547,162.12 M87.755,245.875L17.089,439.707V108.671
	c0-3.468,2.786-6.249,6.25-6.249h44.906v162.12l14.25-35.537c1.719-4.302,5.88-7.13,10.51-7.13h316.567V162.12h27.938
	c3.408,0,6.251,2.796,6.251,6.255v62.047h-335.13C98.797,230.422,90.083,237.046,87.755,245.875"/>
</svg>
