<?xml version="1.0" encoding="utf-8"?>
<!-- Generator: Adobe Illustrator 21.0.0, SVG Export Plug-In . SVG Version: 6.00 Build 0)  -->
<svg version="1.1" id="Layer_1" xmlns="http://www.w3.org/2000/svg" xmlns:xlink="http://www.w3.org/1999/xlink" x="0px" y="0px"
	 viewBox="0 0 512 512" style="enable-background:new 0 0 512 512;" xml:space="preserve">
<style type="text/css">
	.st0{fill:#2E3191;}
</style>
<g>
	<path class="st0" d="M438.6,0H73.4C32.9,0,0,32.9,0,73.4v365.2C0,479,32.9,512,73.4,512h365.2c40.5,0,73.4-32.9,73.4-73.4V73.4
		C512,32.9,479.1,0,438.6,0z M324.6,480.2c7.6-14.9,23.4-25.1,41.7-25.1c18.3,0,34.1,10.3,41.7,25.1H324.6z M480.3,438.5
		c0,21.4-16.3,39.1-37.1,41.4c-9.1-33.2-40-57.8-76.8-57.8c-36.9,0-67.9,24.7-76.9,58.1H73.4c-23,0-41.7-18.7-41.7-41.7V73.4
		c0-23,18.7-41.7,41.7-41.7h365.2c23,0,41.7,18.7,41.7,41.7V438.5z"/>
	<path class="st0" d="M366.4,305.2c-14.7,0-28.6,5.7-39,16.2c-10.4,10.4-16.2,24.3-16.2,39c0,30.4,24.7,55.2,55.2,55.2
		c30.4,0,55.2-24.8,55.2-55.2C421.6,329.9,396.8,305.2,366.4,305.2z M366.4,382.5c-12.2,0-22.2-10-22.2-22.2
		c0-12.2,10-22.2,22.2-22.2c12.2,0,22.2,10,22.2,22.2C388.6,372.6,378.6,382.5,366.4,382.5z"/>
	<path class="st0" d="M160,133.2c-13.4,0-24.3,10.9-24.3,24.3s10.9,24.3,24.3,24.3s24.3-10.9,24.3-24.3S173.4,133.2,160,133.2z"/>
	<path class="st0" d="M217.7,133.2c-13.4,0-24.3,10.9-24.3,24.3s10.9,24.3,24.3,24.3c13.4,0,24.3-10.9,24.3-24.3
		S231.2,133.2,217.7,133.2z"/>
	<path class="st0" d="M366.4,142.4c0-47-38.2-85.2-85.2-85.2H154.3c-47,0-85.2,38.2-85.2,85.2v23.7c0,47,38.2,85.2,85.2,85.2h123.4
		l88.7,41.2V142.4z M333.3,240.7L285,218.2H154.3c-28.7,0-52.1-23.4-52.1-52.1v-23.8c0-28.7,23.4-52.1,52.1-52.1l126.9,0
		c28.7,0,52.1,23.4,52.1,52.1V240.7z"/>
	<path class="st0" d="M275.5,133.2c-13.4,0-24.3,10.9-24.3,24.3s10.9,24.3,24.3,24.3c13.4,0,24.3-10.9,24.3-24.3
		S288.9,133.2,275.5,133.2z"/>
</g>
</svg>
