<?xml version="1.0" encoding="utf-8"?>
<!-- Generator: Adobe Illustrator 21.0.0, SVG Export Plug-In . SVG Version: 6.00 Build 0)  -->
<svg version="1.1" id="Layer_1" xmlns="http://www.w3.org/2000/svg" xmlns:xlink="http://www.w3.org/1999/xlink" x="0px" y="0px"
	 viewBox="0 0 512 512" style="enable-background:new 0 0 512 512;" xml:space="preserve">
<style type="text/css">
	.st0{fill:#2E3191;}
</style>
<g>
	<path class="st0" d="M438.6,0H73.4C32.9,0,0,32.9,0,73.4v365.2C0,479.1,32.9,512,73.4,512h365.2c40.5,0,73.4-32.9,73.4-73.4V73.4
		C512,32.9,479.1,0,438.6,0z M31.7,438.6V111.9h139.1v57.3H71.6c-8.8,0-15.9,7.1-15.9,15.9c0,8.8,7.1,15.9,15.9,15.9h99.2v82.9H71.6
		c-8.8,0-15.9,7.1-15.9,15.9c0,8.8,7.1,15.9,15.9,15.9h99.2v82.9H71.6c-8.8,0-15.9,7.1-15.9,15.9c0,8.8,7.1,15.9,15.9,15.9h99.2
		v50.1H73.4C50.4,480.3,31.7,461.6,31.7,438.6z M438.6,480.3h-236v-50.1h238.1c8.8,0,15.9-7.1,15.9-15.9c0-8.8-7.1-15.9-15.9-15.9
		H202.6V201h238.1c8.8,0,15.9-7.1,15.9-15.9c0-8.8-7.1-15.9-15.9-15.9H202.6v-57.3h277.7v326.7C480.3,461.6,461.6,480.3,438.6,480.3
		z"/>
	<path class="st0" d="M368.7,308.9l37.5-28.1c3.2-2.4,3.8-6.9,1.4-10c-1.3-1.8-3.5-2.9-5.7-2.9H355l-18.9-47.2
		c-1.1-2.7-3.7-4.5-6.6-4.5c-0.9,0-1.8,0.2-2.7,0.5c-1.8,0.7-3.3,2.2-4,4l-18.9,47.2H257c-3.9,0-7.2,3.2-7.2,7.2
		c0,2.2,1.1,4.4,2.9,5.7l37.1,27.9L271,360.5c-1.3,3.7,0.6,7.8,4.3,9.2c0.8,0.3,1.6,0.4,2.4,0.4c1.6,0,3.2-0.6,4.5-1.6l47-37.6
		l42.1,37.4c1.3,1.2,3,1.8,4.8,1.8c2,0,4-0.9,5.4-2.4c1.6-1.8,2.2-4.3,1.6-6.6L368.7,308.9z M334.2,316.3c-1.3-1.2-3-1.8-4.8-1.8
		c-1.6,0-3.2,0.6-4.5,1.6l-31.8,25.5l12-32.9c1.1-3,0.1-6.3-2.4-8.2l-24.2-18.2h30.3c2.9,0,5.6-1.8,6.6-4.5l14.1-35.1l14,35.1
		c1.1,2.7,3.7,4.5,6.7,4.5h30.3l-24.2,18.2c-2.4,1.8-3.4,4.8-2.6,7.6l9.2,33.7L334.2,316.3z"/>
	
		<rect x="275.8" y="227.4" transform="matrix(0.7071 -0.7071 0.7071 0.7071 -89.6626 271.518)" class="st0" width="14.3" height="33.2"/>
	
		<rect x="359.4" y="236.8" transform="matrix(0.7072 -0.707 0.707 0.7072 -62.3883 337.3311)" class="st0" width="33.2" height="14.3"/>
	<rect x="239.5" y="309.3" class="st0" width="35" height="14.3"/>
	<rect x="384.4" y="309.3" class="st0" width="35" height="14.3"/>
	<rect x="322.3" y="348.3" class="st0" width="14.3" height="35"/>
</g>
</svg>
