<?xml version="1.0" encoding="utf-8"?>
<!-- Generator: Adobe Illustrator 16.0.0, SVG Export Plug-In . SVG Version: 6.00 Build 0)  -->
<!DOCTYPE svg PUBLIC "-//W3C//DTD SVG 1.1//EN" "http://www.w3.org/Graphics/SVG/1.1/DTD/svg11.dtd">
<svg version="1.1" id="Layer_1" xmlns="http://www.w3.org/2000/svg" xmlns:xlink="http://www.w3.org/1999/xlink" x="0px" y="0px"
	 width="512px" height="512px" viewBox="0 0 512 512" enable-background="new 0 0 512 512" xml:space="preserve">
<g>
	<defs>
		<path id="SVGID_1_" d="M246.103,399.512l5.53-17.004h8.752l5.522,16.982c-3.142,5.806-6.06,11.19-9.906,18.311L246.103,399.512z
			 M231.457,372.508l3.81-2.787l2.845,5.85l-1.873,5.747L231.457,372.508z M273.905,375.556l2.838-5.85l3.759,2.772l-4.746,8.788
			L273.905,375.556z M247.554,360.692l8.447-6.212l8.448,6.212l-3.316,6.822h-10.262L247.554,360.692z M201.514,317.004
			l11.786-8.136l31.591,35.161c-1.822,1.343-18.797,13.804-20.597,15.125L201.514,317.004z M267.112,344.029l31.599-35.161
			l11.793,8.136c-7.577,13.991-17.89,33.063-22.795,42.15C285.764,357.725,269.464,345.757,267.112,344.029 M268.978,293.286
			c4.202-0.609,8.752-1.61,11.401-2.373c0.631-0.195,4.245-1.066,9.667-3.149v8.317l-34.045,37.868l-34.037-37.868v-7.279
			c10.813,3.759,21.91,5.516,32.716,5.516C259.521,294.317,264.304,293.962,268.978,293.286 M306.621,212.414
			c14.776,0,26.802-12.021,26.802-26.797v-10.65l5.08-3.001v23.456c0,44.603-35.308,83.357-83.91,83.887c-0.102,0-1.11,0-1.016,0
			c-12.969-0.13-22.926-3.454-21.917-3.164c-14.718-4.093-28.761-12.512-40.757-26.094c-24.269-28.293-19.595-55.762-20.226-78.085
			l5.08,3.001v10.65c0,14.775,12.018,26.797,26.794,26.797h19.732c14.783,0,26.794-12.021,26.794-26.797v-7.439h11.023v7.439
			c0,14.775,12.019,26.797,26.787,26.797H306.621z M190.758,185.617v-14.929c0-2.445,2.061-4.503,4.507-4.503h34.305
			c2.453,0,4.507,2.058,4.507,4.503v14.929c0,6.502-5.291,11.796-11.793,11.796h-19.732
			C196.049,197.413,190.758,192.119,190.758,185.617 M275.096,185.617v-14.929h0.007c0-2.445,2.062-4.503,4.5-4.503h34.319
			c2.438,0,4.5,2.058,4.5,4.503v14.929c0,6.502-5.306,11.796-11.801,11.796h-19.732C280.4,197.413,275.096,192.119,275.096,185.617
			 M353.511,191.089V164.89c8.636-0.453,16.387,5.374,16.387,13.096c0,7.519-7.265,13.133-15.443,13.133
			C354.142,191.118,353.822,191.11,353.511,191.089 M139.289,177.985c0-7.794,7.816-13.549,16.395-13.096v26.199
			c-0.312,0.021-0.631,0.029-0.943,0.029C146.474,191.118,139.289,185.438,139.289,177.985 M341.159,128.32h-0.015H341.159z
			 M305.997,104.549l0.116,0.021c7.242,13.049,18.673,21.282,32.39,23.416v26.562l-8.55,5.044
			c-3.534-5.076-9.397-8.411-16.031-8.411h-34.319c-8.092,0-15.052,4.964-17.991,12h-14.043c-2.939-7.036-9.892-12-17.998-12
			h-34.305c-6.641,0-12.512,3.335-16.024,8.411l-8.527-5.021c0.74-12.828,12.33-22.193,25.038-20.357
			c7.054,1.02,14.892,1.695,23.238,1.695C245.536,135.915,277.316,129.064,305.997,104.549 M196.731,14.018l-0.094,0.044
			c-0.878,0.511-11.365,5.366-24.276,16.165c-3.128,2.703-3.476,7.438-0.769,10.581c2.714,3.136,7.453,3.47,10.574,0.766
			c49.843-41.846,123.817-31.094,158.006,11.064c0.842,1.041,1.872,1.814,3.12,2.282c0.973,0.388,23.79,9.989,23.79,50.162v47.34
			c-4.158-1.768-8.716-2.667-13.571-2.536v-24.53c0-6.227-4.688-11.361-10.915-11.964c-12.606-1.219-19.667-9.431-23.368-16.104
			c-4.638-8.354-15.713-10.353-22.97-4.147c-33.435,28.59-71.957,30.038-98.358,26.231c-19.958-2.881-38.515,10.712-41.737,30.521
			c-4.855-0.199-9.66,0.664-14.065,2.521c0.022-25.817-2.954-53.914,18.172-86.107c2.257-3.473,1.285-8.11-2.185-10.382
			c-3.476-2.268-8.113-1.288-10.378,2.178c-28.753,44.037-18.462,83.499-20.618,108.119c-9.551,19.09,6.328,40.917,29.167,39.847
			c3.723,35.622,25.655,56.113,26.185,56.999c3.897,3.729,10.878,11.539,24.515,19.043v12.903l-18.673,12.81
			c-73.088,25.393-65.671,22.309-71.608,25.93c-11.234,6.917-19.007,17.49-22.244,30.503c-0.639,2.576,0.421-2.286-22.432,112.329
			c-0.458,2.314-0.704,6.829-0.283,10.66C73.4,502.979,84.569,512,102.335,512h206.086c4.144,0,7.497-3.346,7.497-7.489
			s-3.354-7.497-7.497-7.497h-153.34v-68.727c0-4.137-3.36-7.504-7.504-7.504c-4.151,0-7.497,3.367-7.497,7.504v68.727h-37.745
			c-11.757,0-17.28-5.051-15.582-17.722c20.524-100.282,20.567-108.366,23.92-116.589c0.581-0.82,3.824-12.389,19.682-19.109
			c1.633-0.682,0.617-0.231,6.256-1.944c0.341-0.116-1.372,0.479,25.56-8.868l17.977,33.151c1.967,3.657,6.51,5.007,10.167,3.033
			c3.622-1.974,4.986-6.531,3.004-10.175l-16.786-31.003l11.481-3.992c5.538,10.233,54.553,100.718,59.895,110.559
			c3.288,6.089,11.663,6.394,15.516,1.074c0.704-0.958-3.288,6.205,60.468-111.661l11.481,3.984L274.66,440.065
			c-8.005,14.798-29.291,14.798-37.295,0.015l-27.368-50.511c-1.974-3.644-6.524-5-10.175-3.026
			c-3.628,1.974-4.985,6.524-3.012,10.168l27.36,50.518c13.687,25.256,50.018,25.241,63.683-0.036l61.876-114.455
			c26.874,9.333,25.299,8.796,25.647,8.897c5.291,1.611,4.695,1.299,6.249,1.945c5.74,2.438,9.165,5.254,9.071,5.182
			c5.886,4.746,9.928,10.218,12.105,18.296c0.348,1.284,22.613,111.668,22.7,115.398c0.226,9.412-3.831,14.558-15.828,14.558H371.93
			v-68.727c0-4.137-3.367-7.504-7.504-7.504c-4.151,0-7.497,3.367-7.497,7.504v68.727h-13.513c-4.145,0-7.49,3.354-7.49,7.497
			s3.346,7.489,7.49,7.489h66.259c17.759,0,28.921-9.021,30.619-24.755c0.406-3.744,0.159-8.36-0.291-10.653
			c-22.816-114.542-21.815-109.673-21.938-110.137c-2.997-14.486-11.394-26.504-25.03-34.037
			c-6.379-3.527-10.059-4.078-13.273-5.124L323.72,307.83l-18.674-12.816v-14.529c27.31-16.228,44.705-44.168,47.877-74.416
			c22.817,1.07,38.732-20.749,29.16-39.847v-61.14c0-44.215-24.044-59.593-31.381-63.266C327.718,14.395,292.005,0.007,255.95,0
			C235.579,0,215.106,4.594,196.731,14.018"/>
	</defs>
	<use xlink:href="#SVGID_1_"  overflow="visible"/>
	<clipPath id="SVGID_2_">
		<use xlink:href="#SVGID_1_"  overflow="visible"/>
	</clipPath>
	<polygon clip-path="url(#SVGID_2_)" points="337.175,-166.182 670.778,368.436 174.821,677.91 -158.776,143.292 	"/>
</g>
</svg>
