<?xml version="1.0" encoding="utf-8"?>
<!-- Generator: Adobe Illustrator 21.0.0, SVG Export Plug-In . SVG Version: 6.00 Build 0)  -->
<svg version="1.1" id="Layer_1" xmlns="http://www.w3.org/2000/svg" xmlns:xlink="http://www.w3.org/1999/xlink" x="0px" y="0px"
	 viewBox="0 0 512 512" style="enable-background:new 0 0 512 512;" xml:space="preserve">
<g>
	<path d="M438.6-0.5H73.4C32.9-0.5,0,32.5,0,72.9v365.2c0,40.5,32.9,73.4,73.4,73.4h365.2c40.5,0,73.4-32.9,73.4-73.4V72.9
		C512,32.5,479.1-0.5,438.6-0.5z M480.3,438.1c0,23-18.7,41.7-41.7,41.7H73.4c-23,0-41.7-18.7-41.7-41.7V72.9
		c0-23,18.7-41.7,41.7-41.7h365.2c23,0,41.7,18.7,41.7,41.7L480.3,438.1L480.3,438.1z"/>
	<path d="M154.5,229.6c-4,0-7.9,1.6-10.8,4.5c-2.8,2.8-4.5,6.8-4.5,10.8s1.6,7.9,4.5,10.8c2.8,2.8,6.8,4.5,10.8,4.5
		s7.9-1.6,10.8-4.5c2.8-2.8,4.5-6.8,4.5-10.8s-1.6-7.9-4.5-10.8C162.4,231.2,158.5,229.6,154.5,229.6z"/>
	<path d="M219.8,229.6c-4,0-7.9,1.6-10.8,4.5c-2.8,2.8-4.5,6.8-4.5,10.8s1.6,7.9,4.5,10.8c2.8,2.8,6.8,4.5,10.8,4.5
		s7.9-1.6,10.8-4.5c2.8-2.8,4.5-6.8,4.5-10.8s-1.6-7.9-4.5-10.8C227.8,231.2,223.8,229.6,219.8,229.6z"/>
	<path d="M285.1,260.1c4,0,7.9-1.6,10.8-4.5c2.8-2.8,4.5-6.8,4.5-10.8s-1.6-7.9-4.5-10.8c-2.8-2.8-6.8-4.5-10.8-4.5
		s-7.9,1.6-10.8,4.5c-2.8,2.8-4.5,6.8-4.5,10.8s1.6,7.9,4.5,10.8C277.2,258.4,281.1,260.1,285.1,260.1z"/>
	<path d="M350.5,229.6c-4,0-7.9,1.6-10.8,4.5c-2.8,2.8-4.5,6.8-4.5,10.8s1.6,7.9,4.5,10.8c2.8,2.8,6.8,4.5,10.8,4.5
		s7.9-1.6,10.8-4.5c2.8-2.8,4.5-6.8,4.5-10.8s-1.6-7.9-4.5-10.8S354.5,229.6,350.5,229.6z"/>
	<path d="M89.1,294.9c-4,0-7.9,1.6-10.8,4.5c-2.8,2.8-4.5,6.8-4.5,10.8s1.6,7.9,4.5,10.8c2.8,2.8,6.8,4.5,10.8,4.5s7.9-1.6,10.8-4.5
		c2.8-2.8,4.5-6.8,4.5-10.8s-1.6-7.9-4.5-10.8C97.1,296.5,93.2,294.9,89.1,294.9z"/>
	<path d="M154.5,294.9c-4,0-7.9,1.6-10.8,4.5c-2.8,2.8-4.5,6.8-4.5,10.8s1.6,7.9,4.5,10.8c2.8,2.8,6.8,4.5,10.8,4.5
		s7.9-1.6,10.8-4.5c2.8-2.8,4.5-6.8,4.5-10.8s-1.6-7.9-4.5-10.8C162.4,296.5,158.5,294.9,154.5,294.9z"/>
	<path d="M219.8,294.9c-4,0-7.9,1.6-10.8,4.5c-2.8,2.8-4.5,6.8-4.5,10.8s1.6,7.9,4.5,10.8c2.8,2.8,6.8,4.5,10.8,4.5
		s7.9-1.6,10.8-4.5c2.8-2.8,4.5-6.8,4.5-10.8s-1.6-7.9-4.5-10.8C227.8,296.5,223.8,294.9,219.8,294.9z"/>
	<path d="M274.4,320.9c2.8,2.8,6.8,4.5,10.8,4.5s7.9-1.6,10.8-4.5c2.8-2.8,4.5-6.8,4.5-10.8s-1.6-7.9-4.5-10.8
		c-2.8-2.8-6.8-4.5-10.8-4.5s-7.9,1.6-10.8,4.5c-2.8,2.8-4.5,6.8-4.5,10.8C269.9,314.2,271.5,318.1,274.4,320.9z"/>
	<path d="M350.5,294.9c-4,0-7.9,1.6-10.8,4.5c-2.8,2.8-4.5,6.8-4.5,10.8s1.6,7.9,4.5,10.8c2.8,2.8,6.8,4.5,10.8,4.5
		s7.9-1.6,10.8-4.5c2.8-2.8,4.5-6.8,4.5-10.8s-1.6-7.9-4.5-10.8S354.5,294.9,350.5,294.9z"/>
	<path d="M89.1,360.2c-4,0-7.9,1.6-10.8,4.5c-2.8,2.8-4.5,6.8-4.5,10.8s1.6,7.9,4.5,10.8c2.8,2.8,6.8,4.5,10.8,4.5s7.9-1.6,10.8-4.5
		c2.8-2.8,4.5-6.8,4.5-10.8s-1.6-7.9-4.5-10.8C97.1,361.9,93.2,360.2,89.1,360.2z"/>
	<path d="M154.5,360.2c-4,0-7.9,1.6-10.8,4.5c-2.8,2.8-4.5,6.8-4.5,10.8s1.6,7.9,4.5,10.8c2.8,2.8,6.8,4.5,10.8,4.5
		s7.9-1.6,10.8-4.5c2.8-2.8,4.5-6.8,4.5-10.8s-1.6-7.9-4.5-10.8C162.4,361.9,158.5,360.2,154.5,360.2z"/>
	<path d="M219.8,360.2c-4,0-7.9,1.6-10.8,4.5c-2.8,2.8-4.5,6.8-4.5,10.8s1.6,7.9,4.5,10.8c2.8,2.8,6.8,4.5,10.8,4.5
		s7.9-1.6,10.8-4.5c2.8-2.8,4.5-6.8,4.5-10.8s-1.6-7.9-4.5-10.8C227.8,361.9,223.8,360.2,219.8,360.2z"/>
	<path d="M89.1,425.6c-4,0-7.9,1.6-10.8,4.5c-2.8,2.8-4.5,6.8-4.5,10.8s1.6,7.9,4.5,10.8c2.8,2.8,6.8,4.5,10.8,4.5s7.9-1.6,10.8-4.5
		c2.8-2.8,4.5-6.8,4.5-10.8s-1.6-7.9-4.5-10.8C97.1,427.2,93.2,425.6,89.1,425.6z"/>
	<path d="M154.5,425.6c-4,0-7.9,1.6-10.8,4.5c-2.8,2.8-4.5,6.8-4.5,10.8s1.6,7.9,4.5,10.8c2.8,2.8,6.8,4.5,10.8,4.5
		s7.9-1.6,10.8-4.5c2.8-2.8,4.5-6.8,4.5-10.8s-1.6-7.9-4.5-10.8C162.4,427.2,158.5,425.6,154.5,425.6z"/>
	<path d="M219.8,425.6c-4,0-7.9,1.6-10.8,4.5c-2.8,2.8-4.5,6.8-4.5,10.8s1.6,7.9,4.5,10.8c2.8,2.8,6.8,4.5,10.8,4.5
		s7.9-1.6,10.8-4.5c2.8-2.8,4.5-6.8,4.5-10.8s-1.6-7.9-4.5-10.8C227.8,427.2,223.8,425.6,219.8,425.6z"/>
	<path d="M285.1,360.2c-4,0-7.9,1.6-10.8,4.5c-2.8,2.8-4.5,6.8-4.5,10.8s1.6,7.9,4.5,10.8c2.8,2.8,6.8,4.5,10.8,4.5
		s7.9-1.6,10.8-4.5c2.8-2.8,4.5-6.8,4.5-10.8s-1.6-7.9-4.5-10.8C293.1,361.9,289.2,360.2,285.1,360.2z"/>
	<path d="M285.1,425.6c-4,0-7.9,1.6-10.8,4.5c-2.8,2.8-4.5,6.8-4.5,10.8s1.6,7.9,4.5,10.8c2.8,2.8,6.8,4.5,10.8,4.5
		s7.9-1.6,10.8-4.5c2.8-2.8,4.5-6.8,4.5-10.8s-1.6-7.9-4.5-10.8C293.1,427.2,289.1,425.6,285.1,425.6z"/>
	<path d="M445.5,277.3c2.8-4.8,4.2-10.2,4.2-15.8c0-11.8-6.5-22.6-16.8-28V120.4c0-6.4-3.9-12.1-9.8-14.5L261.6,41.3
		c-1.9-0.7-3.8-1.1-5.8-1.1c-2,0-4,0.4-5.8,1.1L88.6,105.9c-3.9,1.6-6.9,4.5-8.6,8.4c-1.6,3.8-1.7,8.1-0.1,12c1.6,4,4.8,7.1,8.7,8.7
		l53,21.4v47.5h25.9v-37.1l82.5,32.7c1.9,0.7,3.8,1.1,5.8,1.1c2,0,4-0.4,5.8-1.1l78.6-31.3v35.6h23.9v-45.1l37.5-15.2v90.7
		c-9.6,5.7-15.4,15.9-15.5,27.2c0,5.4,1.4,10.7,4,15.5l-11.3,26.3c-3.3,7.8-0.3,16.8,6.9,20.5c2.3,1.2,4.7,1.8,7.2,1.8h48.4
		c4.2,0,8.1-1.6,11.1-4.6s4.6-6.9,4.6-11.1c0-2-0.4-3.9-1.1-5.7L445.5,277.3z M255.8,168.1l-119.3-47.7l119.3-47.7l32,12.8
		l-14.2,8.2c-5.1-3.3-11-5-17.2-5c-8.8,0-17.2,3.7-23.2,10c-5.8,6.2-8.9,14.3-8.6,22.8c0.3,8.5,3.8,16.4,10,22.2
		c5.9,5.6,13.6,8.6,21.8,8.6c8.7,0,17.2-3.7,23.2-10c5.4-5.8,8.4-13.1,8.6-20.8l36.5-21.1l50.4,20.1L255.8,168.1z M266.3,120.4
		c0,5.4-4.4,9.8-9.8,9.8s-9.8-4.4-9.8-9.8s4.4-9.8,9.8-9.8C261.9,110.6,266.3,115,266.3,120.4z M408.6,304.2l9.4-22l8.6,22H408.6z
		 M424.9,265.3c-0.5,0.7-1.1,1.2-1.8,1.8c-1.9,1.4-3.6,2.9-5.3,4.5c-1.6-1.6-3.4-3.2-5.3-4.6c-3.9-2.9-4.7-8.5-1.8-12.4
		c1.7-2.3,4.3-3.6,7.1-3.6c1.9,0,3.7,0.6,5.3,1.7c1.9,1.4,3.1,3.5,3.5,5.8C427,261.1,426.4,263.3,424.9,265.3z"/>
</g>
</svg>
