<?xml version="1.0" encoding="utf-8"?>
<!-- Generator: Adobe Illustrator 16.0.0, SVG Export Plug-In . SVG Version: 6.00 Build 0)  -->
<!DOCTYPE svg PUBLIC "-//W3C//DTD SVG 1.1//EN" "http://www.w3.org/Graphics/SVG/1.1/DTD/svg11.dtd">
<svg version="1.1" id="Layer_1" xmlns="http://www.w3.org/2000/svg" xmlns:xlink="http://www.w3.org/1999/xlink" x="0px" y="0px"
	 width="512px" height="512px" viewBox="0 0 512 512" enable-background="new 0 0 512 512" xml:space="preserve">
<path d="M78.317,60.417H78.27c-4.838,0-9.392,1.891-12.835,5.318c-3.475,3.475-5.389,8.092-5.389,13.008v274.733
	c0,10.076,8.226,18.286,18.342,18.317c42.649,0.095,114.104,8.99,163.387,60.574v-287.52c0-3.419-0.867-6.634-2.514-9.282
	C198.802,70.416,121.061,60.523,78.317,60.417"/>
<path d="M451.954,353.477V78.743c0-4.916-1.914-9.533-5.396-13.008c-3.428-3.428-7.99-5.314-12.835-5.314h-0.039
	c-42.736,0.094-120.479,9.995-160.938,75.154c-1.646,2.647-2.521,5.854-2.521,9.273V432.36
	c49.291-51.568,120.738-60.464,163.387-60.566C443.713,371.763,451.954,363.545,451.954,353.477"/>
<path d="M493.681,123.78h-13.283v229.697c0,25.725-20.958,46.69-46.722,46.761c-36.174,0.079-95.81,7.171-138.049,47.132
	c73.055-17.885,150.063-6.256,193.957,3.751c5.477,1.245,11.141-0.048,15.53-3.546c4.38-3.482,6.886-8.706,6.886-14.309V142.09
	C512,131.998,503.782,123.78,493.681,123.78"/>
<path d="M31.595,353.477V123.78H18.311C8.21,123.78,0,131.989,0,142.09v291.175c0,5.595,2.505,10.811,6.878,14.301
	c4.389,3.506,10.045,4.799,15.537,3.554c43.894-10.007,120.911-21.644,193.965-3.751c-42.239-39.978-101.883-47.053-138.055-47.14
	C52.561,400.167,31.595,379.201,31.595,353.477"/>
</svg>
