<?xml version="1.0" encoding="utf-8"?>
<!-- Generator: Adobe Illustrator 16.0.0, SVG Export Plug-In . SVG Version: 6.00 Build 0)  -->
<!DOCTYPE svg PUBLIC "-//W3C//DTD SVG 1.1//EN" "http://www.w3.org/Graphics/SVG/1.1/DTD/svg11.dtd">
<svg version="1.1" id="Layer_1" xmlns="http://www.w3.org/2000/svg" xmlns:xlink="http://www.w3.org/1999/xlink" x="0px" y="0px"
	 width="512px" height="512px" viewBox="0 0 512 512" enable-background="new 0 0 512 512" xml:space="preserve">
<path d="M59.737,59.733v443.728c0,4.721,3.818,8.539,8.533,8.539h324.262c4.713,0,8.533-3.818,8.533-8.539V145.069
	c0-0.188-0.09-0.352-0.111-0.536c-0.039-0.751-0.189-1.485-0.434-2.193c-0.096-0.274-0.164-0.541-0.283-0.803
	c-0.418-0.931-0.988-1.776-1.705-2.502l-85.331-85.331c-0.725-0.726-1.574-1.297-2.516-1.708c-0.252-0.112-0.52-0.198-0.781-0.283
	c-0.717-0.245-1.455-0.391-2.209-0.438c-0.146,0.021-0.314-0.072-0.494-0.072H68.271C63.556,51.202,59.737,55.018,59.737,59.733
	 M371.927,136.529h-56.194v-56.19L371.927,136.529z M76.802,68.271h221.862v76.798c0,4.713,3.82,8.532,8.533,8.532h76.798v341.334
	H76.802V68.271z"/>
<path d="M418.134,443.733v17.064h25.596c4.713,0,8.533-3.82,8.533-8.541V8.536c0-4.717-3.82-8.536-8.533-8.536H119.466
	c-4.713,0-8.533,3.819-8.533,8.536v25.602h17.064V17.068h307.197v426.665H418.134z"/>
<rect x="128.001" y="170.671" width="204.796" height="17.063"/>
<rect x="128.001" y="119.464" width="68.269" height="17.064"/>
<rect x="128.001" y="221.863" width="136.534" height="17.073"/>
<rect x="281.596" y="221.863" width="51.197" height="17.073"/>
<rect x="128.001" y="273.063" width="204.796" height="17.074"/>
<rect x="128.001" y="375.468" width="204.796" height="17.064"/>
<rect x="204.799" y="324.274" width="127.998" height="17.057"/>
<rect x="128.001" y="324.274" width="59.735" height="17.057"/>
<rect x="128.001" y="426.669" width="34.135" height="17.064"/>
<rect x="179.197" y="426.669" width="153.596" height="17.064"/>
</svg>
