<?xml version="1.0" encoding="utf-8"?>
<!-- Generator: Adobe Illustrator 16.0.0, SVG Export Plug-In . SVG Version: 6.00 Build 0)  -->
<!DOCTYPE svg PUBLIC "-//W3C//DTD SVG 1.1//EN" "http://www.w3.org/Graphics/SVG/1.1/DTD/svg11.dtd">
<svg version="1.1" id="Layer_1" xmlns="http://www.w3.org/2000/svg" xmlns:xlink="http://www.w3.org/1999/xlink" x="0px" y="0px"
	 width="512px" height="512px" viewBox="0 0 512 512" enable-background="new 0 0 512 512" xml:space="preserve">
<path fill="#2A306E" d="M486.632,470.319l-8.302-8.289c4.976-3.868,3.952-7.636,3.952-22.411c0-5.303-4.069-9.599-9.246-10.051
	v-56.081c0-3.516-3.101-8.751-8.105-10.647l-74.871-28.468V18.249C390.06,8.181,381.875,0,371.811,0
	C368.048,0,69.794,0.004,65.687,0.004c-23.602,0-42.799,19.201-42.799,42.799v87.511c0,10.064,8.185,18.249,18.249,18.249h51.118
	v301.494c0,10.061,8.185,18.249,18.245,18.249h121.823v15.447c0,8.197,5.542,15.337,13.483,17.334
	c0.054,0.008,0.18,0.042,0.293,0.067c56.987,14.448,117.296,14.473,174.359,0c0.088-0.025,0.181-0.051,0.269-0.067
	c7.938-2.014,13.479-9.137,13.479-17.334v-86.496l22.612-8.592v40.903c-5.177,0.452-9.25,4.748-9.25,10.051
	c0,14.876-0.994,18.568,3.951,22.411l-8.298,8.289c-3.167,3.172-3.167,8.315,0,11.47c3.159,3.172,8.294,3.18,11.466,0l2.131-2.114
	v2.995c0,4.48,3.633,8.113,8.109,8.113c4.476,0,8.109-3.633,8.109-8.113v-2.995l2.131,2.114
	C482.73,489.365,494.2,477.896,486.632,470.319 M92.263,132.34H41.128c-1.12,0-2.026-0.906-2.026-2.026V42.807
	c0-14.658,11.927-26.584,26.581-26.584c14.658,0,26.581,11.927,26.581,26.584V132.34z M232.318,452.088H110.5
	c-1.116,0-2.022-0.915-2.022-2.031c0-173.863,0.004-395.587,0.004-407.25c0-10.047-3.499-19.281-9.313-26.589h272.642
	c1.12,0,2.031,0.906,2.031,2.031v309.956l-36.268-13.785c-2.785-1.066-5.853-1.058-8.642,0
	c-82.464,31.346-52.432,19.935-127.348,48.42c-10.442,3.978-10.442,18.77,0,22.746l30.734,11.68V452.088z M417.987,483.753
	c0,0.763-0.517,1.426-1.158,1.577c-0.092,0.025-0.185,0.042-0.272,0.075c-54.491,13.827-112.099,13.827-166.589,0
	c-0.046-0.017-0.155-0.042-0.256-0.067c-0.705-0.201-1.17-0.83-1.17-1.585V403.44l80.399,30.558c2.794,1.065,5.865,1.058,8.646,0
	l80.4-30.565V483.753z M333.258,418.291c-16.961-6.452-107.648-40.928-115.938-44.082l115.938-44.083l115.933,44.083
	C440.867,377.38,350.68,411.672,333.258,418.291"/>
<path fill="#2A306E" d="M339.135,480.044c5.525,0.378,14.83,0.444,23.422-0.134c10.677-0.722,9.619-16.907-1.095-16.186
	c-6.646,0.453-14.066,0.528-21.186,0.135C329.524,463.121,328.471,479.28,339.135,480.044"/>
<path fill="#2A306E" d="M391.771,474.154c2.773,0,8.063-2.786,10.102-3.961c3.885-2.231,5.215-7.198,2.987-11.075
	c-2.24-3.876-7.19-5.227-11.079-2.986c-1.46,0.848-3.134,1.636-4.979,2.357C380.47,461.762,382.891,474.154,391.771,474.154"/>
<path fill="#2A306E" d="M170.402,72.366h132.466c4.484,0,8.113-3.637,8.113-8.113c0-4.48-3.629-8.109-8.113-8.109H170.402
	c-4.476,0-8.109,3.629-8.109,8.109C162.293,68.729,165.926,72.366,170.402,72.366"/>
<path fill="#2A306E" d="M145.059,136.573h194.646c4.477,0,8.109-3.633,8.109-8.117c0-4.477-3.633-8.105-8.109-8.105H145.059
	c-4.48,0-8.109,3.629-8.109,8.105C136.95,132.94,140.579,136.573,145.059,136.573"/>
<path fill="#2A306E" d="M145.059,187.481h194.646c4.477,0,8.109-3.633,8.109-8.113c0-4.476-3.633-8.105-8.109-8.105H145.059
	c-4.48,0-8.109,3.629-8.109,8.105C136.95,183.848,140.579,187.481,145.059,187.481"/>
<path fill="#2A306E" d="M145.059,238.397h194.646c4.477,0,8.109-3.637,8.109-8.113c0-4.48-3.633-8.105-8.109-8.105H145.059
	c-4.48,0-8.109,3.625-8.109,8.105C136.95,234.76,140.579,238.397,145.059,238.397"/>
<path fill="#2A306E" d="M347.814,281.202c0-4.48-3.633-8.113-8.109-8.113H145.059c-4.48,0-8.109,3.633-8.109,8.113
	s3.629,8.113,8.109,8.113h194.646C344.182,289.315,347.814,285.683,347.814,281.202"/>
</svg>
