<?xml version="1.0" encoding="utf-8"?>
<!-- Generator: Adobe Illustrator 21.0.0, SVG Export Plug-In . SVG Version: 6.00 Build 0)  -->
<svg version="1.1" id="Layer_1" xmlns="http://www.w3.org/2000/svg" xmlns:xlink="http://www.w3.org/1999/xlink" x="0px" y="0px"
	 viewBox="0 0 512 512" style="enable-background:new 0 0 512 512;" xml:space="preserve">
<g>
	<path d="M438.6,0H73.4C32.9,0,0,32.9,0,73.4v365.2C0,479.1,32.9,512,73.4,512h365.2c40.5,0,73.4-32.9,73.4-73.4V73.4
		C512,32.9,479.1,0,438.6,0z M480.3,438.6c0,23-18.7,41.7-41.7,41.7H73.4c-23,0-41.7-18.7-41.7-41.7V73.4c0-23,18.7-41.7,41.7-41.7
		h365.2c23,0,41.7,18.7,41.7,41.7L480.3,438.6L480.3,438.6z"/>
	<path d="M175.7,287.5c-6.6,0-25,0-38.3,19.6v79.7h22.1v-71.6c0,0,3.2-7.1,16.2-7.1c1.7,0,17.7,0,17.7,12.5v66.2h22.1v-66.2
		C215.5,317.9,214.7,287.5,175.7,287.5z"/>
	<path d="M324.3,138.8l-29.5,87.9h16.3l7.9-24.4h32.7l7.9,24.4h16.7l-29.7-87.9L324.3,138.8L324.3,138.8z M323.4,188.7l12-37.3
		l12,37.3H323.4z"/>
	<path d="M396.5,86.7h-122c-19.4,0-35.1,15.7-35.1,35.1v119.4c-0.7,0-1.3-0.1-2-0.1h-122c-19.4,0-35.1,15.7-35.1,35.1v122
		c0,19.3,15.7,35.1,35.1,35.1h122c19.3,0,35.1-15.7,35.1-35.1V278.7c0.7,0,1.3,0.1,2,0.1h122c19.4,0,35.1-15.7,35.1-35.1v-122
		C431.6,102.4,415.9,86.7,396.5,86.7z M240.8,398.2c0,1.8-1.5,3.3-3.3,3.3h-122c-1.8,0-3.3-1.5-3.3-3.3v-122c0-1.8,1.5-3.3,3.3-3.3
		h122c1.8,0,3.3,1.5,3.3,3.3V398.2z M399.9,243.7c0,1.8-1.5,3.3-3.3,3.3h-122c-1.8,0-3.3-1.5-3.3-3.3v-122c0-1.8,1.5-3.3,3.3-3.3
		h122c1.8,0,3.3,1.5,3.3,3.3V243.7z"/>
	<path d="M405.8,301c-0.8-8.8-10.9-13.4-18.1-8.3L348.1,321c-7.2,5.1-6.1,16.1,1.9,19.8l7.1,3.2c-20.3,26.8-57.4,26.9-59.4,26.9
		c-8.9-0.2-15.9,6.9-16.1,15.6c-0.1,8.8,6.8,16,15.6,16.1c0.4,0,0.9,0,1.4,0c24,0,65.5-10.2,87.9-45.3l7.8,3.5
		c8,3.7,17-2.7,16.2-11.5L405.8,301z"/>
	<path d="M103.5,216.5c0.8,8.8,10.9,13.4,18.1,8.3l39.6-28.2c7.2-5.1,6.1-16.1-1.9-19.8l-7.1-3.2c20.2-26.8,57.4-26.9,59.4-26.9
		c8.7,0.2,15.9-6.9,16.1-15.6c0.1-8.8-6.8-16-15.6-16.1c-23.8-0.3-66.4,9.5-89.3,45.3l-7.8-3.5c-8-3.7-17,2.7-16.2,11.5L103.5,216.5
		z"/>
</g>
</svg>
