<?xml version="1.0" encoding="utf-8"?>
<!-- Generator: Adobe Illustrator 21.0.0, SVG Export Plug-In . SVG Version: 6.00 Build 0)  -->
<svg version="1.1" id="Layer_1" xmlns="http://www.w3.org/2000/svg" xmlns:xlink="http://www.w3.org/1999/xlink" x="0px" y="0px"
	 viewBox="0 0 512 512" style="enable-background:new 0 0 512 512;" xml:space="preserve">
<g>
	<g>
		<path d="M230.6,287.7c10.3-6.5,19.7-14.3,27.8-23.4l29.3,16.9l26.6-46.2l-29.2-16.9c3.7-11.3,5.9-23.4,6.3-35.8l33.2-5.9
			l-9.3-52.5l-33.2,5.9c-4.6-11.4-10.8-22-18.2-31.5l21.7-25.9l-40.8-34.3L223.1,64c-10.6-5.7-22.1-9.9-34.2-12.5V18h-53.3v33.7
			c-12.1,2.5-23.6,6.8-34.2,12.5L79.8,38.3L39,72.6l21.7,25.9c-7.5,9.5-13.6,20.1-18.2,31.5l-33.2-5.9L0,176.6l33.2,5.9
			c0.4,12.5,2.6,24.5,6.3,35.8l-29.2,16.9L37,281.3l29.3-16.9c8.1,9,17.5,16.9,27.8,23.4l-11.6,31.7l50.1,18.2l11.5-31.7
			c5.9,0.8,12,1.3,18.2,1.3s12.2-0.4,18.2-1.3l11.5,31.7l50.1-18.2L230.6,287.7z M162.3,246.2c-37.5,0-68.1-30.5-68.1-68.1
			c0-37.5,30.5-68.1,68.1-68.1s68.1,30.5,68.1,68.1S199.8,246.2,162.3,246.2z"/>
		<path d="M459.6,327.8l-23,7.4c-4.4-7.6-9.8-14.5-16-20.5l12.8-20.5l-32.3-20.3l-12.8,20.5c-8.1-3-16.6-4.9-25.5-5.5l-3.3-23.9
			l-37.8,5.3l3.3,23.9c-8.3,3-16,7.1-23,12.2l-17.9-16.2l-25.6,28.3l17.9,16.2c-4.4,7.5-7.7,15.6-9.8,24.1l-24.1-0.9l-1.4,38.1
			l24.1,0.9c1.5,8.8,4.3,17.1,8,24.8l-19,14.8l23.5,30.1l19.1-14.9c6.6,5.6,14.1,10.3,22,13.8l-5.1,23.6l37.3,8l5.1-23.6
			c4.3,0,8.6-0.3,13-0.9s8.6-1.5,12.8-2.7l11.3,21.3l33.7-17.9l-11.3-21.4c6.7-5.6,12.6-12.1,17.4-19.3l22.4,9.1l14.3-35.4
			l-22.4-9.1c1.5-8.4,1.9-17.1,0.9-26l23-7.4L459.6,327.8z M363.2,429.5c-26.6,3.7-51.3-14.9-55-41.5s14.9-51.3,41.5-55
			s51.3,14.9,55,41.5C408.4,401.1,389.8,425.8,363.2,429.5z"/>
		<path d="M511.1,195.6l0.9-30.1l-19.1-0.6c-1.2-6.6-3.3-13.2-6.5-19.5l15-11.8L482.7,110l-15,11.8c-5.3-4.4-11.2-8-17.5-10.8
			l3.9-18.7l-29.5-6.1l-3.9,18.7c-6.8,0-13.6,1-20.3,2.9l-9-16.8l-26.5,14.3l9,16.8c-5.3,4.5-9.9,9.7-13.7,15.4l-17.7-7.1l-11.1,28
			l17.7,7.1c-1.2,6.7-1.4,13.6-0.6,20.5l-18.1,6l9.5,28.6l18.1-6c3.5,6.1,7.9,11.5,12.7,16.1l-10,16.2l25.6,15.8l10-16.2
			c6.5,2.3,13.2,3.7,20.1,4.2l2.8,18.9l29.8-4.4l-2.7-18.9c3.2-1.2,6.3-2.6,9.4-4.2c3.1-1.7,6-3.5,8.7-5.5l14.2,12.7l20-22.5
			l-14.2-12.7c3.4-6,6-12.4,7.6-19.1L511.1,195.6z M439.3,211.7c-18.7,10.1-42.1,3-52.1-15.6c-10.1-18.7-3-42.1,15.6-52.1
			c18.7-10.1,42-3,52.1,15.6C465,178.3,458,201.6,439.3,211.7z"/>
	</g>
</g>
</svg>
