<?xml version="1.0" encoding="utf-8"?>
<!-- Generator: Adobe Illustrator 16.0.0, SVG Export Plug-In . SVG Version: 6.00 Build 0)  -->
<!DOCTYPE svg PUBLIC "-//W3C//DTD SVG 1.1//EN" "http://www.w3.org/Graphics/SVG/1.1/DTD/svg11.dtd">
<svg version="1.1" id="Layer_1" xmlns="http://www.w3.org/2000/svg" xmlns:xlink="http://www.w3.org/1999/xlink" x="0px" y="0px"
	 width="1024px" height="278.5px" viewBox="0 0 1024 278.5" enable-background="new 0 0 1024 278.5" xml:space="preserve">
<path fill="#33328F" d="M215.973,154.398c0,16.276-1.229,30.379-3.653,41.922c-2.243,10.793-6.029,19.764-11.237,26.632
	c-5.117,6.651-11.644,11.447-19.963,14.639c-8.828,3.403-19.997,5.126-33.223,5.126c-0.122,0-0.223,0-0.337,0
	c-11.295,0-20.663-1.7-27.857-5.056c-7.08-3.277-12.674-7.827-17.1-13.932c-4.546-6.247-7.877-14.138-9.903-23.44
	c-2.161-9.916-3.247-21.458-3.227-34.316V56.063c-0.021-10.125-0.564-18.3-1.672-25.006c-1.306-7.708-3.787-13.838-7.581-18.746
	c-3.998-5.176-9.604-8.809-16.203-10.489C58.686,0.45,52.383-0.231,44.724-0.258L0-0.231V27.52h17.671
	c10.976,0.181,12.459,3.307,13.134,4.734c2.56,5.682,3.895,13.917,3.882,23.817v98.327c0,19.357,1.717,36.768,5.092,51.743
	c3.509,15.697,9.603,29.063,18.106,39.726c8.665,10.907,20.302,19.162,34.588,24.546c13.879,5.241,30.434,7.786,50.613,7.786
	c21.127,0,38.236-2.537,52.294-7.777c14.52-5.422,26.123-13.729,34.482-24.676c8.238-10.632,14.014-24.036,17.157-39.852
	c2.938-14.996,4.428-32.319,4.428-51.496V-0.258h-35.475V154.398z"/>
<path fill="#33328F" d="M315.55,11.88c-5.421,2.307-9.893,5.441-13.281,9.324c-3.353,3.871-5.764,8.596-6.961,13.635
	c-1.036,4.232-1.562,8.718-1.562,13.335v37.75h27.077v-9.822c0.045-12.005,2.875-20.227,8.64-25.124
	c6.199-5.244,15.663-7.903,28.119-7.903h23.674v230.965h53.208V43.076h83.819V8.515H335.218
	C327.437,8.515,321.011,9.61,315.55,11.88"/>
<path fill="#33328F" d="M731.195,198.172c-9.065,15.177-19.487,26.874-30.979,34.771c-11.155,7.666-24.268,11.4-40.091,11.418
	c-13.421,0-24.469-2.656-33.781-8.136c-9.517-5.631-17.078-12.75-23.106-21.774c-6.169-9.176-10.735-19.842-13.583-31.713
	c-2.976-12.256-4.489-24.908-4.489-37.593c0-20.688,2.104-38.174,6.25-51.979c4.031-13.334,9.556-24.19,16.403-32.252
	c6.796-7.944,14.371-13.471,23.152-16.907c9.235-3.596,18.773-5.345,29.146-5.345c17.178,0.03,30.581,4.675,40.98,14.191
	c10.431,9.606,17.78,25.392,21.836,46.949l1.535,7.832h24.41v-9.686c0-10.918-0.366-21.653-1.09-31.914
	c-0.835-11.884-4.162-21.525-9.863-28.635c-7.448-9.383-18.74-17.042-34.502-23.41c-15.136-6.124-33.271-9.228-53.876-9.228
	c-16.478,0-32.193,3.766-46.684,11.199c-14.333,7.313-27.007,17.526-37.665,30.35c-10.479,12.578-18.919,27.537-25.114,44.485
	c-6.096,16.835-9.18,35.118-9.18,54.35c0,18.271,2.723,35.568,8.086,51.401c5.438,16.192,13.385,30.469,23.626,42.422
	c10.304,12.084,22.976,21.759,37.676,28.755c14.721,6.993,31.292,10.534,49.255,10.534c11.081,0,21.746-1.036,31.707-3.102
	c10.275-2.156,19.938-5.895,28.719-11.102c8.729-5.15,17-11.979,24.601-20.323c7.494-8.276,14.322-18.606,20.314-30.692l3.595-7.217
	l-21.759-16.832L731.195,198.172z"/>
<path fill="#33328F" d="M1002.316,188.982l-5.52,9.18l-0.009,0.004c-9.103,15.199-19.529,26.9-30.989,34.777
	c-11.154,7.658-24.262,11.4-40.074,11.422c-13.428,0-24.485-2.66-33.797-8.14c-9.525-5.651-17.086-12.769-23.108-21.767
	c-6.193-9.246-10.767-19.915-13.597-31.711c-2.971-12.282-4.475-24.935-4.475-37.603c0-20.693,2.104-38.186,6.26-51.977
	c4.022-13.342,9.546-24.196,16.411-32.256c6.771-7.937,14.351-13.463,23.147-16.903c9.232-3.597,18.769-5.345,29.149-5.345
	c17.171,0.028,30.574,4.67,40.98,14.189c10.418,9.599,17.765,25.389,21.837,46.922l1.501,7.861h24.423v-9.691
	c0-11.233-0.37-21.975-1.077-31.911c-0.844-11.864-4.167-21.5-9.879-28.643c-7.479-9.402-18.756-17.059-34.481-23.402
	c-15.131-6.124-33.262-9.227-53.893-9.227c-16.482,0-32.189,3.763-46.652,11.194c-14.375,7.333-27.063,17.546-37.685,30.354
	c-10.487,12.599-18.928,27.562-25.105,44.48c-6.104,16.876-9.214,35.162-9.214,54.352c0,18.204,2.731,35.505,8.118,51.396
	c5.396,16.125,13.348,30.401,23.626,42.432c10.296,12.093,22.969,21.768,37.66,28.751c14.722,6.993,31.293,10.534,49.252,10.534
	c11.088,0,21.74-1.041,31.703-3.097c10.307-2.164,19.973-5.902,28.729-11.106c8.741-5.15,17.004-11.988,24.571-20.318
	c7.511-8.269,14.36-18.599,20.381-30.742l3.488-7.188L1002.316,188.982z"/>
</svg>
